<?xml version="1.0" encoding="UTF-8" standalone="no"?>
<!-- Created with Inkscape (http://www.inkscape.org/) -->

<svg
   xmlns:dc="http://purl.org/dc/elements/1.1/"
   xmlns:cc="http://creativecommons.org/ns#"
   xmlns:rdf="http://www.w3.org/1999/02/22-rdf-syntax-ns#"
   xmlns:svg="http://www.w3.org/2000/svg"
   xmlns="http://www.w3.org/2000/svg"
   xmlns:sodipodi="http://sodipodi.sourceforge.net/DTD/sodipodi-0.dtd"
   xmlns:inkscape="http://www.inkscape.org/namespaces/inkscape"
   width="170.2099mm"
   height="147.30098mm"
   viewBox="0 0 170.2099 147.30098"
   version="1.1"
   id="svg8"
   inkscape:version="0.92.4 (5da689c313, 2019-01-14)"
   sodipodi:docname="icon_house_jaune.svg">
  <defs
     id="defs2" />
  <sodipodi:namedview
     id="base"
     pagecolor="#ffffff"
     bordercolor="#666666"
     borderopacity="1.0"
     inkscape:pageopacity="0.0"
     inkscape:pageshadow="2"
     inkscape:zoom="0.7"
     inkscape:cx="76.413757"
     inkscape:cy="208.18016"
     inkscape:document-units="mm"
     inkscape:current-layer="layer1"
     showgrid="false"
     inkscape:window-width="1920"
     inkscape:window-height="1027"
     inkscape:window-x="-8"
     inkscape:window-y="-8"
     inkscape:window-maximized="1" />
  <metadata
     id="metadata5">
    <rdf:RDF>
      <cc:Work
         rdf:about="">
        <dc:format>image/svg+xml</dc:format>
        <dc:type
           rdf:resource="http://purl.org/dc/dcmitype/StillImage" />
        <dc:title></dc:title>
      </cc:Work>
    </rdf:RDF>
  </metadata>
  <g
     inkscape:label="Calque 1"
     inkscape:groupmode="layer"
     id="layer1"
     transform="translate(-17.704577,-37.385228)">
    <path
       inkscape:connector-curvature="0"
       id="path881"
       style="fill:#f5bb00;fill-opacity:1;fill-rule:nonzero;stroke:none;stroke-width:0.0721427"
       d="m 59.186023,65.614666 6.83913,10.042264 -24.61437,36.15792 H 27.729643 Z M 114.77053,62.91653 v 18.6561 c 0,1.91178 1.55106,3.47007 3.46862,3.47007 1.91322,0 3.4679,-1.55829 3.4679,-3.47007 V 44.325356 h 8.49191 V 81.57263 c 0,1.91178 1.55179,3.47007 3.46862,3.47007 1.91395,0 3.46863,-1.55829 3.46863,-3.47007 v -18.6561 h 5.88323 l 34.86801,51.2141 -59.5978,-0.0216 c -0.0166,0 -0.0339,0 -0.0505,0 -0.0166,0 -0.0339,0 -0.0505,0 H 100.59449 L 73.142033,73.78843 c -0.004,-0.0144 -0.0101,-0.0216 -0.0159,-0.0289 l -7.38164,-10.84304 z m 49.71425,114.83675 h -42.77773 v -56.70416 l 42.77773,0.0144 z m -49.71425,0 H 88.847493 v -40.17627 c 0,-0.92343 -0.36504,-1.80357 -1.01577,-2.46006 -3.17211,-3.16707 -7.3903,-4.91292 -11.87902,-4.91292 -4.48943,0 -8.70762,1.74585 -11.8819,4.91292 -0.65,0.65649 -1.01577,1.53663 -1.01577,2.46006 v 40.17627 h -16.34032 v -61.40065 l 23.50698,-34.5275 25.67198,37.70178 c 0.64712,0.95228 1.72132,1.51499 2.866947,1.51499 l 16.00991,0.007 z m -32.859557,0 h -11.9187 v -38.61077 c 3.41235,-2.59714 8.50779,-2.59714 11.9187,0 z m -60.7391,-58.9983 h 18.6056 v 62.46115 c 0,1.919 1.55323,3.47007 3.46862,3.47007 H 167.95268 c 1.91683,0 3.46862,-1.55107 3.46862,-3.47007 v -60.15258 l 13.02392,0.007 v 0 c 1.28703,0 2.46584,-0.70701 3.06535,-1.84686 0.60311,-1.13264 0.5252,-2.51056 -0.19623,-3.57106 L 147.72098,57.498613 c -0.64351,-0.952284 -1.71772,-1.514997 -2.86551,-1.514997 h -7.71926 V 40.855292 c 0,-1.911782 -1.55468,-3.470064 -3.46863,-3.470064 h -15.42843 c -1.91756,0 -3.46862,1.558282 -3.46862,3.470064 V 55.983616 H 59.186023 c -0.002,0 -0.006,0 -0.008,0 -0.25611,0 -0.51366,0.03607 -0.76544,0.09379 -0.0786,0.01443 -0.15078,0.04329 -0.22869,0.06493 -0.16809,0.05771 -0.33185,0.115428 -0.4949,0.194785 -0.088,0.04329 -0.17026,0.08657 -0.2561,0.137072 -0.0657,0.03607 -0.13491,0.06493 -0.19912,0.108214 -0.0779,0.0505 -0.13851,0.115428 -0.2121,0.173142 -0.0721,0.06493 -0.145,0.122642 -0.21354,0.187571 -0.15006,0.137071 -0.2828,0.288571 -0.40256,0.454499 -0.0274,0.03607 -0.0606,0.06493 -0.088,0.101 l -38.0113,55.831231 c -0.72431,1.0605 -0.79934,2.43842 -0.19984,3.57106 0.60095,1.13986 1.78121,1.85407 3.06535,1.85407" />
    <path
       inkscape:connector-curvature="0"
       id="path883"
       style="fill:#f5bb00;fill-opacity:1;fill-rule:nonzero;stroke:none;stroke-width:0.0721427"
       d="m 105.15751,107.71715 56.50866,0.0216 v 0 c 1.91683,0 3.46862,-1.55107 3.46862,-3.46285 0.003,-1.919 -1.55179,-3.47728 -3.46502,-3.47728 l -56.50865,-0.0216 v 0 c -1.91611,0 -3.46862,1.55107 -3.46862,3.47006 -10e-4,1.91179 1.55107,3.47007 3.46501,3.47007" />
  </g>
</svg>
