<?xml version="1.0" encoding="UTF-8" standalone="no"?>
<!-- Created with Inkscape (http://www.inkscape.org/) -->

<svg
   xmlns:dc="http://purl.org/dc/elements/1.1/"
   xmlns:cc="http://creativecommons.org/ns#"
   xmlns:rdf="http://www.w3.org/1999/02/22-rdf-syntax-ns#"
   xmlns:svg="http://www.w3.org/2000/svg"
   xmlns="http://www.w3.org/2000/svg"
   xmlns:sodipodi="http://sodipodi.sourceforge.net/DTD/sodipodi-0.dtd"
   xmlns:inkscape="http://www.inkscape.org/namespaces/inkscape"
   width="170.09879mm"
   height="170.09715mm"
   viewBox="0 0 170.09879 170.09715"
   version="1.1"
   id="svg1725"
   inkscape:version="0.92.4 (5da689c313, 2019-01-14)"
   sodipodi:docname="icon_building.svg">
  <defs
     id="defs1719" />
  <sodipodi:namedview
     id="base"
     pagecolor="#ffffff"
     bordercolor="#666666"
     borderopacity="1.0"
     inkscape:pageopacity="0.0"
     inkscape:pageshadow="2"
     inkscape:zoom="0.35"
     inkscape:cx="-209.98206"
     inkscape:cy="275.72915"
     inkscape:document-units="mm"
     inkscape:current-layer="layer1"
     showgrid="false"
     inkscape:window-width="1920"
     inkscape:window-height="1027"
     inkscape:window-x="1912"
     inkscape:window-y="15"
     inkscape:window-maximized="1" />
  <metadata
     id="metadata1722">
    <rdf:RDF>
      <cc:Work
         rdf:about="">
        <dc:format>image/svg+xml</dc:format>
        <dc:type
           rdf:resource="http://purl.org/dc/dcmitype/StillImage" />
        <dc:title></dc:title>
      </cc:Work>
    </rdf:RDF>
  </metadata>
  <g
     inkscape:label="Calque 1"
     inkscape:groupmode="layer"
     id="layer1"
     transform="translate(-13.980372,-51.689524)">
    <path
       inkscape:connector-curvature="0"
       id="path849"
       style="fill:#268f91;fill-opacity:1;fill-rule:nonzero;stroke:none;stroke-width:0.0721427"
       d="m 157.99524,221.78667 c 1.91539,0 3.4679,-1.55179 3.4679,-3.4679 0,-1.91539 -1.55251,-3.46718 -3.4679,-3.46718 H 40.065012 c -1.91539,0 -3.4679,1.55179 -3.4679,3.46718 0,1.91611 1.55251,3.4679 3.4679,3.4679 H 157.99524" />
    <path
       inkscape:connector-curvature="0"
       id="path851"
       style="fill:#268f91;fill-opacity:1;fill-rule:nonzero;stroke:none;stroke-width:0.0721427"
       d="m 151.72604,200.32782 h -30.50771 v -57.93708 l 30.50771,15.50852 z m -37.44351,-63.60245 c 0,0.004 0,0.006 0,0.0101 v 63.59234 H 83.777712 V 76.318851 l 30.504818,-15.5078 z m -37.443497,63.60245 h -30.50843 v -68.8768 l 30.50843,-15.50779 z m 103.769337,0 h -21.94653 v -44.55605 c 0,-1.30578 -0.73009,-2.50119 -1.89808,-3.0942 L 121.21833,134.61231 V 55.155791 c 0,-1.20262 -0.62475,-2.32444 -1.65135,-2.95569 -1.03019,-0.62836 -2.31433,-0.68103 -3.38637,-0.13418 l -37.444227,19.03196 c -1.164381,0.59301 -1.89735,1.78481 -1.89735,3.09348 v 33.972719 l -35.546149,18.06958 c -1.164392,0.58869 -1.898082,1.78481 -1.898082,3.09059 v 71.00357 h -21.94653 c -1.91539,0 -3.4679,1.55179 -3.4679,3.46718 0,1.91611 1.55251,3.47151 3.4679,3.47151 H 180.60837 c 1.91899,0 3.47078,-1.5554 3.47078,-3.47151 0,-1.91539 -1.55179,-3.46718 -3.47078,-3.46718" />
    <path
       inkscape:connector-curvature="0"
       id="path853"
       style="fill:#268f91;fill-opacity:1;fill-rule:nonzero;stroke:none;stroke-width:0.0721427"
       d="m 130.6582,195.48705 c 1.43564,0 2.60363,-1.16727 2.60363,-2.60291 v -37.78979 c 0,-1.43925 -1.16799,-2.60363 -2.60363,-2.60363 -1.43564,0 -2.60002,1.16438 -2.60002,2.60363 v 37.78979 c 0,1.43564 1.16438,2.60291 2.60002,2.60291" />
    <path
       inkscape:connector-curvature="0"
       id="path855"
       style="fill:#268f91;fill-opacity:1;fill-rule:nonzero;stroke:none;stroke-width:0.0721427"
       d="m 142.28256,195.48705 c 1.43924,0 2.60363,-1.16727 2.60363,-2.60291 v -26.80751 c 0,-1.43636 -1.16439,-2.60002 -2.60363,-2.60002 -1.43564,0 -2.60003,1.16366 -2.60003,2.60002 v 26.80751 c 0,1.43564 1.16439,2.60291 2.60003,2.60291" />
    <path
       inkscape:connector-curvature="0"
       id="path857"
       style="fill:#268f91;fill-opacity:1;fill-rule:nonzero;stroke:none;stroke-width:0.0721427"
       d="m 67.398432,195.48705 c 1.439251,0 2.60363,-1.16727 2.60363,-2.60291 v -63.40478 c 0,-1.43925 -1.164379,-2.60002 -2.60363,-2.60002 -1.436359,0 -2.600021,1.16077 -2.600021,2.60002 v 63.40478 c 0,1.43564 1.163662,2.60291 2.600021,2.60291" />
    <path
       inkscape:connector-curvature="0"
       id="path859"
       style="fill:#268f91;fill-opacity:1;fill-rule:nonzero;stroke:none;stroke-width:0.0721427"
       d="m 55.774082,195.48705 c 1.43564,0 2.60363,-1.16727 2.60363,-2.60291 v -52.42322 c 0,-1.43924 -1.16799,-2.60002 -2.60363,-2.60002 -1.435639,0 -2.60002,1.16078 -2.60002,2.60002 v 52.42322 c 0,1.43564 1.164381,2.60291 2.60002,2.60291" />
    <path
       inkscape:connector-curvature="0"
       id="path861"
       style="fill:#268f91;fill-opacity:1;fill-rule:nonzero;stroke:none;stroke-width:0.0721427"
       d="m 105.31447,195.48705 c 1.43997,0 2.60363,-1.16727 2.60363,-2.60291 V 75.172501 c 0,-1.43564 -1.16366,-2.60002 -2.60363,-2.60002 -1.43564,0 -2.60002,1.16438 -2.60002,2.60002 V 192.88414 c 0,1.43564 1.16438,2.60291 2.60002,2.60291" />
    <path
       inkscape:connector-curvature="0"
       id="path863"
       style="fill:#268f91;fill-opacity:1;fill-rule:nonzero;stroke:none;stroke-width:0.0721427"
       d="m 92.741443,195.48705 c 1.43636,0 2.60363,-1.16727 2.60363,-2.60291 V 86.736981 c 0,-1.43637 -1.16727,-2.60363 -2.60363,-2.60363 -1.435639,0 -2.60002,1.16726 -2.60002,2.60363 V 192.88414 c 0,1.43564 1.164381,2.60291 2.60002,2.60291" />
  </g>
</svg>
