<?xml version="1.0" encoding="UTF-8" standalone="no"?>
<!-- Created with Inkscape (http://www.inkscape.org/) -->

<svg
   xmlns:dc="http://purl.org/dc/elements/1.1/"
   xmlns:cc="http://creativecommons.org/ns#"
   xmlns:rdf="http://www.w3.org/1999/02/22-rdf-syntax-ns#"
   xmlns:svg="http://www.w3.org/2000/svg"
   xmlns="http://www.w3.org/2000/svg"
   xmlns:sodipodi="http://sodipodi.sourceforge.net/DTD/sodipodi-0.dtd"
   xmlns:inkscape="http://www.inkscape.org/namespaces/inkscape"
   width="170.85036mm"
   height="168.51886mm"
   viewBox="0 0 170.85036 168.51886"
   version="1.1"
   id="svg2312"
   inkscape:version="0.92.4 (5da689c313, 2019-01-14)"
   sodipodi:docname="icon_buildin_student.svg">
  <defs
     id="defs2306" />
  <sodipodi:namedview
     id="base"
     pagecolor="#ffffff"
     bordercolor="#666666"
     borderopacity="1.0"
     inkscape:pageopacity="0.0"
     inkscape:pageshadow="2"
     inkscape:zoom="0.35"
     inkscape:cx="-254.27604"
     inkscape:cy="349.88941"
     inkscape:document-units="mm"
     inkscape:current-layer="layer1"
     showgrid="false"
     inkscape:window-width="1920"
     inkscape:window-height="1027"
     inkscape:window-x="1912"
     inkscape:window-y="15"
     inkscape:window-maximized="1" />
  <metadata
     id="metadata2309">
    <rdf:RDF>
      <cc:Work
         rdf:about="">
        <dc:format>image/svg+xml</dc:format>
        <dc:type
           rdf:resource="http://purl.org/dc/dcmitype/StillImage" />
        <dc:title></dc:title>
      </cc:Work>
    </rdf:RDF>
  </metadata>
  <g
     inkscape:label="Calque 1"
     inkscape:groupmode="layer"
     id="layer1"
     transform="translate(-25.69982,-72.88938)">
    <path
       inkscape:connector-curvature="0"
       id="path927"
       style="fill:#56739a;fill-opacity:1;fill-rule:nonzero;stroke:none;stroke-width:0.0721427"
       d="m 33.882791,106.9328 8.45512,-27.10401 H 179.88519 l 8.44791,27.10401 z M 177.87962,234.47244 h -52.56317 v -30.55027 c 0,-7.83542 -6.3702,-14.20995 -14.2049,-14.21355 -7.8347,0.004 -14.212109,6.37813 -14.212109,14.21355 v 30.55027 H 44.343481 V 113.8686 H 177.87962 Z m -59.49609,0 h -14.54397 v -30.55027 c 0,-4.01113 3.26086,-7.27487 7.27199,-7.27487 4.01113,0 7.27198,3.26374 7.27198,7.27487 z M 185.75039,75.32348 c -0.4545,-1.44285 -1.78914,-2.4341 -3.31135,-2.4341 H 39.784061 c -1.515,0 -2.85685,0.99125 -3.31135,2.4341 l -10.61219,34.04342 c -0.33186,1.05472 -0.14428,2.19819 0.51221,3.09059 0.6565,0.8888 1.69536,1.41111 2.79193,1.41111 h 8.24591 v 124.07174 c 0,1.91178 1.54385,3.4679 3.46285,3.4679 H 181.34968 c 1.91178,0 3.47007,-1.55612 3.47007,-3.4679 V 113.8686 h 8.23148 c 0.0144,-0.004 0.0216,-0.004 0.0361,0 1.91899,0 3.46285,-1.55251 3.46285,-3.4679 0,-0.53313 -0.11543,-1.03741 -0.33186,-1.48541 l -10.4679,-33.59181" />
    <path
       inkscape:connector-curvature="0"
       id="path929"
       style="fill:#56739a;fill-opacity:1;fill-rule:nonzero;stroke:none;stroke-width:0.0721427"
       d="m 61.253732,128.57561 h 8.505619 v 9.76452 h -8.505619 z m -3.470061,16.70392 h 15.43853 c 1.918999,0 3.470072,-1.55539 3.470072,-3.47078 v -16.70104 c 0,-1.91178 -1.551073,-3.4679 -3.470072,-3.4679 h -15.43853 c -1.918999,0 -3.470071,1.55612 -3.470071,3.4679 v 16.70104 c 0,1.91539 1.551072,3.47078 3.470071,3.47078" />
    <path
       inkscape:connector-curvature="0"
       id="path931"
       style="fill:#56739a;fill-opacity:1;fill-rule:nonzero;stroke:none;stroke-width:0.0721427"
       d="m 91.654661,128.57561 h 8.505629 v 9.76452 h -8.505629 z m -3.47006,16.70392 h 15.445749 c 1.919,0 3.47007,-1.55539 3.47007,-3.47078 v -16.70104 c 0,-1.91178 -1.55107,-3.4679 -3.47007,-3.4679 H 88.184601 c -1.911779,0 -3.470059,1.55612 -3.470059,3.4679 v 16.70104 c 0,1.91539 1.55828,3.47078 3.470059,3.47078" />
    <path
       inkscape:connector-curvature="0"
       id="path933"
       style="fill:#56739a;fill-opacity:1;fill-rule:nonzero;stroke:none;stroke-width:0.0721427"
       d="m 122.06281,128.57561 h 8.50563 v 9.76452 h -8.50563 z m -3.47006,16.70392 h 15.44575 c 1.91178,0 3.46285,-1.55539 3.46285,-3.47078 v -16.70104 c 0,-1.91178 -1.55107,-3.4679 -3.46285,-3.4679 h -15.44575 c -1.919,0 -3.47007,1.55612 -3.47007,3.4679 v 16.70104 c 0,1.91539 1.55107,3.47078 3.47007,3.47078" />
    <path
       inkscape:connector-curvature="0"
       id="path935"
       style="fill:#56739a;fill-opacity:1;fill-rule:nonzero;stroke:none;stroke-width:0.0721427"
       d="m 152.46374,128.57561 h 8.50563 v 9.76452 h -8.50563 z m -3.47006,16.70392 h 15.44575 c 1.91178,0 3.47007,-1.55539 3.47007,-3.47078 v -16.70104 c 0,-1.91178 -1.55829,-3.4679 -3.47007,-3.4679 h -15.44575 c -1.91178,0 -3.47006,1.55612 -3.47006,3.4679 v 16.70104 c 0,1.91539 1.55828,3.47078 3.47006,3.47078" />
    <path
       inkscape:connector-curvature="0"
       id="path937"
       style="fill:#56739a;fill-opacity:1;fill-rule:nonzero;stroke:none;stroke-width:0.0721427"
       d="m 61.253732,165.33881 h 8.505619 v 9.76452 h -8.505619 z m -3.470061,16.70032 h 15.43853 c 1.918999,0 3.470072,-1.55252 3.470072,-3.4679 v -16.70392 c 0,-1.91251 -1.551073,-3.4679 -3.470072,-3.4679 h -15.43853 c -1.918999,0 -3.470071,1.55539 -3.470071,3.4679 v 16.70392 c 0,1.91538 1.551072,3.4679 3.470071,3.4679" />
    <path
       inkscape:connector-curvature="0"
       id="path939"
       style="fill:#56739a;fill-opacity:1;fill-rule:nonzero;stroke:none;stroke-width:0.0721427"
       d="m 91.654661,165.33881 h 8.505629 v 9.76452 h -8.505629 z m -3.47006,16.70032 h 15.445749 c 1.919,0 3.47007,-1.55252 3.47007,-3.4679 v -16.70392 c 0,-1.91251 -1.55107,-3.4679 -3.47007,-3.4679 H 88.184601 c -1.911779,0 -3.470059,1.55539 -3.470059,3.4679 v 16.70392 c 0,1.91538 1.55828,3.4679 3.470059,3.4679" />
    <path
       inkscape:connector-curvature="0"
       id="path941"
       style="fill:#56739a;fill-opacity:1;fill-rule:nonzero;stroke:none;stroke-width:0.0721427"
       d="m 122.06281,165.33881 h 8.50563 v 9.76452 h -8.50563 z m -3.47006,16.70032 h 15.44575 c 1.91178,0 3.46285,-1.55252 3.46285,-3.4679 v -16.70392 c 0,-1.91251 -1.55107,-3.4679 -3.46285,-3.4679 h -15.44575 c -1.919,0 -3.47007,1.55539 -3.47007,3.4679 v 16.70392 c 0,1.91538 1.55107,3.4679 3.47007,3.4679" />
    <path
       inkscape:connector-curvature="0"
       id="path943"
       style="fill:#56739a;fill-opacity:1;fill-rule:nonzero;stroke:none;stroke-width:0.0721427"
       d="m 152.46374,165.33881 h 8.50563 v 9.76452 h -8.50563 z m -3.47006,16.70032 h 15.44575 c 1.91178,0 3.47007,-1.55252 3.47007,-3.4679 v -16.70392 c 0,-1.91251 -1.55829,-3.4679 -3.47007,-3.4679 h -15.44575 c -1.91178,0 -3.47006,1.55539 -3.47006,3.4679 v 16.70392 c 0,1.91538 1.55828,3.4679 3.47006,3.4679" />
    <path
       inkscape:connector-curvature="0"
       id="path945"
       style="fill:#56739a;fill-opacity:1;fill-rule:nonzero;stroke:none;stroke-width:0.0721427"
       d="m 61.253732,202.09768 h 8.505619 v 9.76524 h -8.505619 z m -3.470061,16.70464 h 15.43853 c 1.918999,0 3.470072,-1.55611 3.470072,-3.4679 V 198.6305 c 0,-1.91611 -1.551073,-3.4679 -3.470072,-3.4679 h -15.43853 c -1.918999,0 -3.470071,1.55179 -3.470071,3.4679 v 16.70392 c 0,1.91179 1.551072,3.4679 3.470071,3.4679" />
    <path
       inkscape:connector-curvature="0"
       id="path947"
       style="fill:#56739a;fill-opacity:1;fill-rule:nonzero;stroke:none;stroke-width:0.0721427"
       d="m 152.46374,202.09768 h 8.50563 v 9.76524 h -8.50563 z m -3.47006,16.70464 h 15.44575 c 1.91178,0 3.47007,-1.55611 3.47007,-3.4679 V 198.6305 c 0,-1.91611 -1.55829,-3.4679 -3.47007,-3.4679 h -15.44575 c -1.91178,0 -3.47006,1.55179 -3.47006,3.4679 v 16.70392 c 0,1.91179 1.55828,3.4679 3.47006,3.4679" />
    <path
       inkscape:connector-curvature="0"
       id="path949"
       style="fill:#56739a;fill-opacity:1;fill-rule:nonzero;stroke:none;stroke-width:0.0721427"
       d="M 168.34235,95.54869 H 53.880752 c -1.911791,0 -3.470071,1.55539 -3.470071,3.4679 0,1.91538 1.55828,3.46789 3.470071,3.46789 H 168.34235 c 1.91178,0 3.46285,-1.55251 3.46285,-3.46789 0,-1.91251 -1.55107,-3.4679 -3.46285,-3.4679" />
    <path
       inkscape:connector-curvature="0"
       id="path951"
       style="fill:#56739a;fill-opacity:1;fill-rule:nonzero;stroke:none;stroke-width:0.0721427"
       d="m 70.928071,91.21291 h 80.359749 c 1.91899,0 3.47006,-1.55179 3.47006,-3.4679 0,-1.91539 -1.55107,-3.4679 -3.47006,-3.4679 H 70.928071 c -1.91179,0 -3.462848,1.55251 -3.462848,3.4679 0,1.91611 1.551058,3.4679 3.462848,3.4679" />
    <path
       inkscape:connector-curvature="0"
       id="path953"
       style="fill:#56739a;fill-opacity:1;fill-rule:nonzero;stroke:none;stroke-width:0.0721427"
       d="m 111.11155,212.07141 c -1.92621,0 -3.48449,1.56261 -3.48449,3.48882 0,1.9226 1.55828,3.48522 3.48449,3.48522 1.92621,0 3.48449,-1.56262 3.48449,-3.48522 0,-1.92621 -1.55828,-3.48882 -3.48449,-3.48882" />
  </g>
</svg>
