<?xml version="1.0" encoding="UTF-8" standalone="no"?>
<!-- Created with Inkscape (http://www.inkscape.org/) -->

<svg
   xmlns:dc="http://purl.org/dc/elements/1.1/"
   xmlns:cc="http://creativecommons.org/ns#"
   xmlns:rdf="http://www.w3.org/1999/02/22-rdf-syntax-ns#"
   xmlns:svg="http://www.w3.org/2000/svg"
   xmlns="http://www.w3.org/2000/svg"
   xmlns:sodipodi="http://sodipodi.sourceforge.net/DTD/sodipodi-0.dtd"
   xmlns:inkscape="http://www.inkscape.org/namespaces/inkscape"
   width="170.09879mm"
   height="170.09714mm"
   viewBox="0 0 170.09879 170.09714"
   version="1.1"
   id="svg833"
   inkscape:version="0.92.4 (5da689c313, 2019-01-14)"
   sodipodi:docname="icon_building_rouge.svg">
  <defs
     id="defs827" />
  <sodipodi:namedview
     id="base"
     pagecolor="#ffffff"
     bordercolor="#666666"
     borderopacity="1.0"
     inkscape:pageopacity="0.0"
     inkscape:pageshadow="2"
     inkscape:zoom="0.35"
     inkscape:cx="-229.98206"
     inkscape:cy="232.87199"
     inkscape:document-units="mm"
     inkscape:current-layer="layer1"
     showgrid="false"
     inkscape:window-width="1920"
     inkscape:window-height="1027"
     inkscape:window-x="-8"
     inkscape:window-y="-8"
     inkscape:window-maximized="1" />
  <metadata
     id="metadata830">
    <rdf:RDF>
      <cc:Work
         rdf:about="">
        <dc:format>image/svg+xml</dc:format>
        <dc:type
           rdf:resource="http://purl.org/dc/dcmitype/StillImage" />
        <dc:title></dc:title>
      </cc:Work>
    </rdf:RDF>
  </metadata>
  <g
     inkscape:label="Calque 1"
     inkscape:groupmode="layer"
     id="layer1"
     transform="translate(-19.27204,-40.350237)">
    <path
       inkscape:connector-curvature="0"
       id="path849"
       style="fill:#bb342f;fill-opacity:1;fill-rule:nonzero;stroke:none;stroke-width:0.0721427"
       d="m 163.28691,210.44738 c 1.91539,0 3.4679,-1.55179 3.4679,-3.4679 0,-1.91539 -1.55251,-3.46718 -3.4679,-3.46718 H 45.35668 c -1.91539,0 -3.4679,1.55179 -3.4679,3.46718 0,1.91611 1.55251,3.4679 3.4679,3.4679 h 117.93023" />
    <path
       inkscape:connector-curvature="0"
       id="path851"
       style="fill:#bb342f;fill-opacity:1;fill-rule:nonzero;stroke:none;stroke-width:0.0721427"
       d="M 157.01771,188.98853 H 126.51 v -57.93708 l 30.50771,15.50852 z M 119.5742,125.38608 c 0,0.004 0,0.006 0,0.0101 v 63.59234 H 89.06938 V 64.979564 l 30.50482,-15.5078 z m -37.443499,63.60245 h -30.50843 v -68.8768 l 30.50843,-15.50779 z m 103.769339,0 h -21.94653 v -44.55605 c 0,-1.30578 -0.73009,-2.50119 -1.89808,-3.0942 L 126.51,123.27302 V 43.816504 c 0,-1.20262 -0.62475,-2.32444 -1.65135,-2.95569 -1.03019,-0.62836 -2.31433,-0.68103 -3.38637,-0.13418 l -37.444229,19.03196 c -1.164381,0.59301 -1.89735,1.78481 -1.89735,3.09348 V 96.824793 L 46.584552,114.89437 c -1.164392,0.58869 -1.898082,1.78481 -1.898082,3.09059 v 71.00357 H 22.73994 c -1.91539,0 -3.4679,1.55179 -3.4679,3.46718 0,1.91611 1.55251,3.47151 3.4679,3.47151 h 163.1601 c 1.91899,0 3.47078,-1.5554 3.47078,-3.47151 0,-1.91539 -1.55179,-3.46718 -3.47078,-3.46718" />
    <path
       inkscape:connector-curvature="0"
       id="path853"
       style="fill:#bb342f;fill-opacity:1;fill-rule:nonzero;stroke:none;stroke-width:0.0721427"
       d="m 135.94987,184.14776 c 1.43564,0 2.60363,-1.16727 2.60363,-2.60291 v -37.78979 c 0,-1.43925 -1.16799,-2.60363 -2.60363,-2.60363 -1.43564,0 -2.60002,1.16438 -2.60002,2.60363 v 37.78979 c 0,1.43564 1.16438,2.60291 2.60002,2.60291" />
    <path
       inkscape:connector-curvature="0"
       id="path855"
       style="fill:#bb342f;fill-opacity:1;fill-rule:nonzero;stroke:none;stroke-width:0.0721427"
       d="m 147.57423,184.14776 c 1.43924,0 2.60363,-1.16727 2.60363,-2.60291 v -26.80751 c 0,-1.43636 -1.16439,-2.60002 -2.60363,-2.60002 -1.43564,0 -2.60003,1.16366 -2.60003,2.60002 v 26.80751 c 0,1.43564 1.16439,2.60291 2.60003,2.60291" />
    <path
       inkscape:connector-curvature="0"
       id="path857"
       style="fill:#bb342f;fill-opacity:1;fill-rule:nonzero;stroke:none;stroke-width:0.0721427"
       d="m 72.6901,184.14776 c 1.439251,0 2.60363,-1.16727 2.60363,-2.60291 v -63.40478 c 0,-1.43925 -1.164379,-2.60002 -2.60363,-2.60002 -1.436359,0 -2.600021,1.16077 -2.600021,2.60002 v 63.40478 c 0,1.43564 1.163662,2.60291 2.600021,2.60291" />
    <path
       inkscape:connector-curvature="0"
       id="path859"
       style="fill:#bb342f;fill-opacity:1;fill-rule:nonzero;stroke:none;stroke-width:0.0721427"
       d="m 61.06575,184.14776 c 1.43564,0 2.60363,-1.16727 2.60363,-2.60291 v -52.42322 c 0,-1.43924 -1.16799,-2.60002 -2.60363,-2.60002 -1.435639,0 -2.60002,1.16078 -2.60002,2.60002 v 52.42322 c 0,1.43564 1.164381,2.60291 2.60002,2.60291" />
    <path
       inkscape:connector-curvature="0"
       id="path861"
       style="fill:#bb342f;fill-opacity:1;fill-rule:nonzero;stroke:none;stroke-width:0.0721427"
       d="m 110.60614,184.14776 c 1.43997,0 2.60363,-1.16727 2.60363,-2.60291 V 63.833214 c 0,-1.43564 -1.16366,-2.60002 -2.60363,-2.60002 -1.43564,0 -2.60002,1.16438 -2.60002,2.60002 V 181.54485 c 0,1.43564 1.16438,2.60291 2.60002,2.60291" />
    <path
       inkscape:connector-curvature="0"
       id="path863"
       style="fill:#bb342f;fill-opacity:1;fill-rule:nonzero;stroke:none;stroke-width:0.0721427"
       d="m 98.033111,184.14776 c 1.43636,0 2.603629,-1.16727 2.603629,-2.60291 V 75.397694 c 0,-1.43637 -1.167269,-2.60363 -2.603629,-2.60363 -1.435639,0 -2.60002,1.16726 -2.60002,2.60363 V 181.54485 c 0,1.43564 1.164381,2.60291 2.60002,2.60291" />
  </g>
</svg>
