<?xml version="1.0" encoding="UTF-8" standalone="no"?>
<!-- Created with Inkscape (http://www.inkscape.org/) -->

<svg
   xmlns:dc="http://purl.org/dc/elements/1.1/"
   xmlns:cc="http://creativecommons.org/ns#"
   xmlns:rdf="http://www.w3.org/1999/02/22-rdf-syntax-ns#"
   xmlns:svg="http://www.w3.org/2000/svg"
   xmlns="http://www.w3.org/2000/svg"
   xmlns:sodipodi="http://sodipodi.sourceforge.net/DTD/sodipodi-0.dtd"
   xmlns:inkscape="http://www.inkscape.org/namespaces/inkscape"
   width="1020.5036mm"
   height="548.4436mm"
   viewBox="0 0 1020.5036 548.4436"
   version="1.1"
   id="svg8"
   inkscape:version="0.92.4 (5da689c313, 2019-01-14)"
   sodipodi:docname="mailing.svg">
  <defs
     id="defs2" />
  <sodipodi:namedview
     id="base"
     pagecolor="#ffffff"
     bordercolor="#666666"
     borderopacity="1.0"
     inkscape:pageopacity="0.0"
     inkscape:pageshadow="2"
     inkscape:zoom="0.12374369"
     inkscape:cx="3329.5873"
     inkscape:cy="981.8791"
     inkscape:document-units="mm"
     inkscape:current-layer="layer1"
     showgrid="false"
     fit-margin-top="0"
     fit-margin-left="0"
     fit-margin-right="0"
     fit-margin-bottom="0"
     inkscape:window-width="1920"
     inkscape:window-height="1027"
     inkscape:window-x="-8"
     inkscape:window-y="-7"
     inkscape:window-maximized="1" />
  <metadata
     id="metadata5">
    <rdf:RDF>
      <cc:Work
         rdf:about="">
        <dc:format>image/svg+xml</dc:format>
        <dc:type
           rdf:resource="http://purl.org/dc/dcmitype/StillImage" />
        <dc:title></dc:title>
      </cc:Work>
    </rdf:RDF>
  </metadata>
  <g
     inkscape:label="Calque 1"
     inkscape:groupmode="layer"
     id="layer1"
     transform="translate(948.66335,160.91884)">
    <path
       id="path16"
       style="fill:#ebf3fa;fill-opacity:1;fill-rule:nonzero;stroke:none;stroke-width:0.03527778"
       d="m -908.68975,386.39589 c 0,0 -90.15381,-137.11767 8.51147,-285.56657 C -812.63611,-30.883802 -674.51267,73.848871 -596.2468,-60.174943 -489.5174,-242.94559 43.127688,-171.56806 -24.330483,109.63112 -56.973012,245.71163 123.82561,250.65758 56.57205,386.68517 l -965.2618,-0.28928"
       inkscape:connector-curvature="0" />
    <path
       id="path18"
       style="fill:#82b378;fill-opacity:1;fill-rule:nonzero;stroke:none;stroke-width:0.03527778"
       d="m -235.78902,112.3969 c 0,0 -16.28423,-21.586473 1.01247,-33.573862 0,0 12.49186,-6.536973 22.27086,-5.330473 0,0 -15.36347,22.454307 -11.01019,25.05428 4.3568,2.603495 15.31761,-26.257252 15.31761,-26.257252 0,0 27.56253,-0.945445 36.11033,3.84175 0,0 -24.61683,17.705918 -19.75555,19.152307 4.86127,1.449917 31.33372,-15.783279 31.33372,-15.783279 0,0 25.22714,5.933723 22.89528,21.403029 -2.32833,15.46931 -11.41589,19.72381 -15.25058,19.06764 -3.83823,-0.65264 -25.88684,-10.68564 -26.57476,-7.55297 -0.69144,3.13266 12.25903,14.32278 21.75228,15.39875 0,0 -19.2158,18.70428 -30.80455,12.23786 -11.59228,-6.46994 -12.04384,-15.60336 -19.27931,-19.46981 -7.23547,-3.86644 -13.59253,-4.2545 -10.73503,-0.59266 2.8575,3.66183 16.12547,7.874 19.91431,15.67391 3.78883,7.79992 7.29191,13.11981 -4.953,10.48809 -12.24492,-2.63172 -31.77117,-12.93284 -32.00753,-23.34331 -0.23636,-10.414 -0.23636,-10.414 -0.23636,-10.414"
       inkscape:connector-curvature="0" />
    <path
       id="path20"
       style="fill:#82b378;fill-opacity:1;fill-rule:nonzero;stroke:none;stroke-width:0.03527778"
       d="m -150.16985,100.54004 c 0,0 -69.08801,-6.992057 -85.61917,11.85686 0,0 -4.01462,9.92011 -14.99659,18.49614 l -1.89794,4.318 c 0,0 12.78819,-11.90272 17.13089,-12.40014 0,0 -5.18231,-24.9555 85.38281,-22.27086"
       inkscape:connector-curvature="0" />
    <path
       id="path22"
       style="fill:#82b378;fill-opacity:1;fill-rule:nonzero;stroke:none;stroke-width:0.03527778"
       d="m -250.78561,130.89304 c 0,0 -15.55044,10.06475 -17.81175,29.64392 l 2.68464,0.40922 c 0,0 6.01486,-20.01661 15.09183,-27.42142 9.07698,-7.40833 0.0353,-2.63172 0.0353,-2.63172"
       inkscape:connector-curvature="0" />
    <path
       id="path24"
       style="fill:#a8d29f;fill-opacity:1;fill-rule:nonzero;stroke:none;stroke-width:0.03527778"
       d="m -315.68261,60.789037 c 0,0 -36.10681,-20.221224 -19.25814,-47.663809 0,0 13.47964,-16.8486676 27.92236,-21.180779 0,0 -7.70114,40.918697 0,41.88178 7.70467,0.963084 5.2952,-46.213891 5.2952,-46.213891 0,0 38.03297,-18.295057 52.959,-16.852196 0,0 -23.59025,39.959142 -15.88911,38.9960581 7.70466,-0.9630834 34.18417,-41.4020021 34.18417,-41.4020021 0,0 38.99605,-7.221362 45.25433,15.885584 6.25828,23.1104735 -3.85233,34.663946 -9.63083,36.106808 -5.77497,1.446389 -42.84487,0.963083 -41.88531,5.7785 0.96661,4.815417 25.99972,12.516556 39.95914,8.184445 0,0 -15.40581,38.032975 -35.6235,36.106808 -20.22122,-1.926167 -26.4795,-14.442723 -38.99606,-15.405807 -12.51656,-0.963083 -21.66408,2.405945 -15.40581,5.778501 6.25828,3.369028 27.44259,1.104194 37.54967,9.697861 10.11061,8.593668 18.29506,13.89239 -0.47977,17.741196 -18.77484,3.852334 -52.4757,1.446389 -59.21729,-12.996334 -6.73805,-14.442723 -6.73805,-14.442723 -6.73805,-14.442723"
       inkscape:connector-curvature="0" />
    <path
       id="path26"
       style="fill:#82b378;fill-opacity:1;fill-rule:nonzero;stroke:none;stroke-width:0.03527778"
       d="m -203.03008,-8.5388566 c 0,0 -101.09906,32.7377796 -112.65253,69.3278936 0,0 0.47978,16.36889 -9.63084,35.143724 v 7.221359 c 0,0 10.59392,-24.553332 16.36889,-27.92236 0,0 -22.62716,-31.774697 105.91448,-83.7706166"
       inkscape:connector-curvature="0" />
    <path
       id="path28"
       style="fill:#82b378;fill-opacity:1;fill-rule:nonzero;stroke:none;stroke-width:0.03527778"
       d="m -325.31345,95.932761 c 0,0 -15.58925,23.674919 -6.70277,52.496869 l 4.01108,-1.0795 c 0,0 -3.89114,-31.74295 4.26508,-47.709674 8.15623,-15.963196 -1.57339,-3.707695 -1.57339,-3.707695"
       inkscape:connector-curvature="0" />
    <path
       id="path30"
       style="fill:#a8d29f;fill-opacity:1;fill-rule:nonzero;stroke:none;stroke-width:0.03527778"
       d="m -506.0909,71.150121 c 0,0 42.01936,-17.783529 26.87814,-49.896892 0,0 -12.72822,-20.0977516 -28.03173,-26.5959187 0,0 3.48192,45.7764477 -5.07647,45.8999197 -8.55839,0.119944 -0.20108,-51.290364 -0.20108,-51.290364 0,0 -39.46173,-24.659169 -55.99289,-24.884946 0,0 21.00791,46.647808 12.68589,44.661669 -8.32556,-1.9896668 -32.44145,-49.515892 -32.44145,-49.515892 0,0 -41.85709,-12.640029 -51.51614,11.927417 -9.65906,24.5639186 0.0176,38.4527806 6.17361,40.735253 6.15597,2.282472 46.83831,6.247695 45.20142,11.405306 -1.64042,5.157612 -30.00728,10.565695 -44.78162,4.1275 0,0 12.27314,43.543364 34.66395,43.885559 22.39081,0.338667 30.76575,-12.618862 44.6017,-12.156723 13.83242,0.462139 23.44914,5.263445 16.18192,8.198556 -7.26723,2.935111 -30.20484,-2.116667 -42.32628,6.078361 -12.12145,8.191501 -21.73112,13.00339 -1.62278,19.501557 20.10833,6.494639 57.32992,7.941027 66.46686,-7.069667 9.13695,-15.010695 9.13695,-15.010695 9.13695,-15.010695"
       inkscape:connector-curvature="0" />
    <path
       id="path32"
       style="fill:#82b378;fill-opacity:1;fill-rule:nonzero;stroke:none;stroke-width:0.03527778"
       d="m -621.14233,-18.473079 c 0,0 106.82465,48.125947 115.05143,89.6232 0,0 -2.51178,17.878779 6.29355,39.680449 l -0.87841,7.9128 c 0,0 -8.62895,-28.19047 -14.55209,-32.582554 0,0 28.64556,-32.078085 -105.91448,-104.633895"
       inkscape:connector-curvature="0" />
    <path
       id="path34"
       style="fill:#82b378;fill-opacity:1;fill-rule:nonzero;stroke:none;stroke-width:0.03527778"
       d="m -499.79735,110.83057 c 0,0 14.21342,27.83417 0.98073,58.34239 l -4.26509,-1.66864 c 0,0 8.11389,-34.3147 1.11125,-52.80025 -7.00616,-18.482031 2.17311,-3.8735 2.17311,-3.8735"
       inkscape:connector-curvature="0" />
    <path
       id="path36"
       style="fill:#82b378;fill-opacity:1;fill-rule:nonzero;stroke:none;stroke-width:0.03527778"
       d="m -592.27805,174.34821 c -7.42597,-10.71033 -8.25147,-20.68689 -8.25147,-20.68689 0,0 20.54578,-14.75317 8.43139,-30.26481 0,0 -9.33803,-9.31333 -18.40795,-10.95375 0,0 7.47889,24.32403 2.86809,25.43881 -4.61434,1.11125 -6.38175,-27.7107 -6.38175,-27.7107 0,0 -24.35225,-8.509 -33.31634,-6.60753 0,0 17.06034,22.6554 12.319,22.59542 -4.74486,-0.0564 -23.59554,-22.80708 -23.59554,-22.80708 0,0 -24.17904,-1.71803 -26.39907,12.74586 -2.21968,14.46389 4.7117,20.7892 8.31921,21.2725 3.60786,0.48331 26.08968,-2.34597 25.83568,0.64206 -0.25753,2.99155 -14.93414,9.38036 -23.7102,7.70466 0,0 11.95952,22.04862 24.10884,19.49451 12.14967,-2.55412 15.09536,-10.58687 22.63069,-12.0262 7.53534,-1.44286 13.32442,-0.0212 9.75078,2.45533 -3.57011,2.47298 -16.59114,2.54706 -22.14386,8.45962 -5.54919,5.91255 -10.16,9.68727 1.50989,10.74208 11.66636,1.05481 31.96872,-2.71286 35.07317,-11.94506 0.13758,-0.40569 0.26458,-0.78669 0.38805,-1.15711 -0.1658,0.75495 -0.38805,1.15711 -0.38805,1.15711 2.24367,0.98778 6.05719,6.48406 8.75242,10.72798 0.39863,0.73025 1.01247,1.73214 1.905,3.08327 h 0.004 c 0.37042,0.61737 0.66675,1.12184 0.87136,1.47462 5.15409,9.60261 4.98123,27.21327 4.98123,27.21327 l 2.51178,0.37748 c 3.42547,-18.11162 -7.66587,-31.42545 -7.66587,-31.42545"
       inkscape:connector-curvature="0" />
    <path
       id="path38"
       style="fill:#2c3a64;fill-opacity:1;fill-rule:nonzero;stroke:none;stroke-width:0.03527778"
       d="m -729.6021,-72.236416 c -0.20284,-1.107722 -2.81058,-13.00339 -21.21253,-10.974917 0,0 9.15988,-0.232834 11.29031,3.499555 0,0 -6.84072,-4.0005 -11.60534,-1.703916 -4.76461,2.296583 -6.42761,11.472334 -6.0392,14.351 0.38841,2.882195 4.50815,11.754557 7.79145,12.08264 1.24354,0.127 2.61444,-0.155222 3.83858,-0.550333 -0.65194,1.435805 -1.26753,3.009194 -1.8221,4.744861 -5.12974,16.058446 4.53284,29.622752 10.4835,27.107446 3.81599,-1.615722 5.92102,4.991806 5.92102,4.991806 l 34.01237,-36.794724 c 0,0 -18.4076,-27.237974 -32.65806,-16.753418"
       inkscape:connector-curvature="0" />
    <path
       id="path40"
       style="fill:#2b478b;fill-opacity:1;fill-rule:nonzero;stroke:none;stroke-width:0.03527778"
       d="m -685.2925,370.93011 -8.27229,3.07975 c 0,0 -35.93041,-49.82986 -40.3539,-93.67662 -0.79022,-7.82813 -0.52669,-15.40933 1.18181,-22.4155 0,0 -0.35101,-2.00377 -0.96555,-5.54919 -0.28399,-1.65453 -0.635,-3.64772 -1.03329,-5.9302 -1.1684,-6.69219 -2.77601,-15.8503 -4.61292,-26.27841 -4.22769,-23.99595 -9.70492,-54.66998 -13.95977,-77.22306 l 2.22885,-0.71614 24.1173,-7.77875 4.98404,-15.82914 17.95781,-4.72723 c 0,0 4.01178,7.84578 7.59777,44.91567 0.66181,4.86481 1.26295,10.22703 1.71556,16.04081 1.39806,17.74825 1.49931,39.76511 -1.70886,64.93581 -0.82373,6.44525 -1.86372,13.09511 -3.15383,19.93194 -0.94544,5.00945 -1.08726,11.83923 -0.68897,19.67795 1.8101,35.84222 14.96624,91.54231 14.96624,91.54231"
       inkscape:connector-curvature="0" />
    <path
       id="path42"
       style="fill:#233862;fill-opacity:1;fill-rule:nonzero;stroke:none;stroke-width:0.03527778"
       d="m -694.70708,174.8421 -38.99535,77.52645 c -0.28399,-1.65453 -0.635,-3.64772 -1.03329,-5.9302 -1.1684,-6.69219 -2.77601,-15.8503 -4.61292,-26.27841 -4.22769,-23.99595 -9.70492,-54.66998 -13.95977,-77.22306 l 2.22885,-0.71614 24.1173,-7.77875 4.98404,-15.82914 17.95781,-4.72723 c 0,0 4.01178,7.84578 7.59777,44.91567 0.66181,4.86481 1.26295,10.22703 1.71556,16.04081"
       inkscape:connector-curvature="0" />
    <path
       id="path44"
       style="fill:#2b478b;fill-opacity:1;fill-rule:nonzero;stroke:none;stroke-width:0.03527778"
       d="m -711.86196,123.83396 -0.90276,-7.74348 c -15.12393,4.01814 -55.53287,-11.22538 -55.53287,-11.22538 0,0 -14.65157,12.87991 -12.72787,43.7515 0.9391,15.06714 2.65395,79.09984 4.44536,98.044 0.64734,6.86859 1.21461,11.75456 1.44603,13.70895 l 0.005,0.0176 c 0.0713,0.59619 -0.13688,1.15711 -0.43956,1.67922 -2.63702,4.47322 -4.82071,9.13342 -6.61177,13.90297 -17.58138,46.85242 2.70793,104.54923 2.70793,104.54923 l 5.26521,-2.12372 c 0,0 11.54606,-64.20909 20.92748,-92.57595 1.59279,-4.81189 3.11926,-8.59367 4.51838,-10.85145 4.07882,-6.58283 7.86447,-17.33902 11.30018,-30.13428 6.49393,-24.18997 11.72104,-55.65422 15.19943,-79.94297 0.47978,0.0212 10.40024,-41.05628 10.40024,-41.05628"
       inkscape:connector-curvature="0" />
    <path
       id="path46"
       style="fill:#ffb27d;fill-opacity:1;fill-rule:nonzero;stroke:none;stroke-width:0.03527778"
       d="m -687.47655,61.780342 c 0.29493,0.306917 0.58315,0.606778 0.93169,0.889 12.92613,12.047362 30.33466,22.697724 39.64975,25.043696 6.12423,1.566334 19.63209,-0.532694 30.85042,-2.839861 7.47184,-1.471083 13.98059,-3.104445 16.66523,-3.739445 0.85372,-0.201083 1.3335,-0.352777 1.3335,-0.352777 l -1.17123,-7.563556 c 0,0 -6.72394,-0.532695 -15.07772,-1.474612 -11.63461,-1.368777 -26.38425,-3.467805 -30.1625,-5.700889 -8.76265,-5.207 -24.14023,-27.047474 -36.47652,-40.777586 -0.64629,-0.747889 -1.28764,-1.467555 -1.92229,-2.173111 -0.4646,-0.518583 -0.92921,-1.023056 -1.38959,-1.520472 -0.0945,-0.09525 -0.21202,-0.261056 -0.36477,-0.342195 -0.56691,-0.546805 -1.04916,-1.054805 -1.51518,-1.499305 -0.018,-0.05292 -0.0984,-0.09525 -0.17745,-0.141112 -2.19251,-2.201333 -6.03744,-4.875389 -6.03744,-4.875389 -2.15547,-1.227667 -3.93135,-1.464028 -5.18054,-0.416278 0,0 -1.61255,1.573389 -3.1937,4.550834 -0.33619,0.620889 -0.6671,1.308806 -0.98178,2.053167 -0.26176,0.409222 -0.39087,0.843139 -0.51823,1.280583 -1.04598,2.744612 -1.80834,6.198306 -1.67181,10.219973 0.0967,3.048 0.67874,6.409973 2.03059,10.117667 2.15582,6.08189 7.60095,12.848168 14.37957,19.261668"
       inkscape:connector-curvature="0" />
    <path
       id="path48"
       style="fill:#ffb27d;fill-opacity:1;fill-rule:nonzero;stroke:none;stroke-width:0.03527778"
       d="m -698.73192,29.878646 c -4.38256,2.861028 -9.84144,5.168195 -16.65147,6.5405 -25.527,5.143501 -34.64242,-16.566445 -37.87775,-31.3831128 3.51437,-1.8803057 6.78074,-2.2260279 8.66705,-2.3988891 1.83903,-0.1622777 3.77084,-0.254 5.36963,-0.28575 2.90935,-2.10255567 7.4048,-10.9114173 8.73372,-24.7438351 l 1.18427,0.352778 19.83387,6.036028 c 0,0 -1.09466,6.3253061 -1.71273,12.319001 -0.47943,4.6884169 -0.6604,9.1792783 0.19861,10.3046395 1.55011,0.381 2.48003,0.6279445 2.48003,0.6279445 l 0.01,0.017639 c 0.25611,0.4480278 5.7859,10.149417 9.76524,22.613057"
       inkscape:connector-curvature="0" />
    <path
       id="path50"
       style="fill:#ff9843;fill-opacity:1;fill-rule:nonzero;stroke:none;stroke-width:0.03527778"
       d="m -689.8458,45.824202 c -0.11783,0.546806 -0.25965,1.075973 -0.4184,1.626306 -4.48098,14.982473 -8.10577,74.873562 -8.10577,74.873562 2.37455,7.48594 -41.1473,9.02053 -65.14889,5.55978 -8.72737,-1.25236 -14.87276,-3.16795 -15.29503,-5.69736 -4.29437,-9.68023 6.21453,-27.76009 12.28301,-36.949952 0.76306,-1.153583 1.41676,-2.367139 1.95651,-3.626556 1.37195,-3.160889 2.03376,-6.604 1.89547,-10.075334 -0.18273,-4.748389 -0.58843,-9.359195 -1.08373,-13.677195 -0.92957,-8.145639 -2.1717,-15.25764 -2.82081,-20.291779 v -0.0035 c 1.26224,-1.255889 2.49202,-2.420055 3.63679,-3.527778 1.74519,-1.707444 3.27554,-3.287889 4.35151,-4.822472 1.1811,-1.672167 1.83868,-3.305528 1.69228,-5.016501 -0.1136,-1.294694 -0.34502,-2.607027 -0.66958,-3.901722 -0.15028,-0.613833 -0.32067,-1.220611 -0.50341,-1.830917 -1.94839,-6.385278 -5.5365,-11.9097783 -5.5365,-11.9097783 6.49852,-3.7994169 19.0172,-3.9158336 19.0172,-3.9158336 0,0 0.085,0.684389 0.24341,1.8026946 0.6089,4.4873336 2.32163,15.9984733 4.07529,17.9669733 2.19181,2.458861 36.8039,9.57439 38.00969,5.637389 1.18534,-3.869972 -5.963,-20.1577232 -6.23076,-20.7750843 l -0.008,-0.021167 c 11.08534,2.6352502 15.89969,5.6126953 16.11877,5.7890843 l -0.0124,-0.0035 c -6.01557,5.266972 5.71147,18.436168 2.55341,32.790696"
       inkscape:connector-curvature="0" />
    <path
       id="path52"
       style="fill:#ed985f;fill-opacity:1;fill-rule:nonzero;stroke:none;stroke-width:0.03527778"
       d="m -709.47154,-16.003635 c 0,0 -1.09819,6.3253061 -1.71238,12.3225287 -11.29242,-1.4534445 -16.24401,-12.3825007 -18.12325,-18.3550287 l 19.83563,6.0325"
       inkscape:connector-curvature="0" />
    <path
       id="path54"
       style="fill:#ffb27d;fill-opacity:1;fill-rule:nonzero;stroke:none;stroke-width:0.03527778"
       d="m -706.25844,-9.9429122 c 0,0 -26.83757,-2.2401388 -25.1848,-18.9300568 1.65241,-16.693445 -0.69815,-28.222224 16.50647,-27.499029 17.20462,0.726722 19.89808,7.422444 20.70171,13.130389 0.80327,5.704417 -4.99992,33.4503912 -12.02338,33.2986968"
       inkscape:connector-curvature="0" />
    <path
       id="path56"
       style="fill:#2c3a64;fill-opacity:1;fill-rule:nonzero;stroke:none;stroke-width:0.03527778"
       d="m -694.10277,-52.600804 c -3.63891,-5.436306 -6.87882,-4.646083 -8.78346,-3.312583 -13.83877,-9.517945 -24.46691,1.439333 -24.46691,1.439333 -2.9912,11.79689 -12.31371,17.790585 -12.31371,17.790585 0,0 4.58153,3.506611 16.12971,1.739194 3.52742,-0.53975 6.84248,-2.677583 9.74901,-5.379861 -5.32059,7.179028 -12.07311,12.061473 -12.07311,12.061473 14.07019,-4.868334 21.34306,-23.032863 22.07895,-24.955502 1.48872,1.633361 4.39314,5.147028 5.06307,8.371417 0.91016,4.381501 0.63464,13.19389 3.21451,13.151557 0,0 6.85941,-12.756446 1.40194,-20.905613"
       inkscape:connector-curvature="0" />
    <path
       id="path58"
       style="fill:#ffb27d;fill-opacity:1;fill-rule:nonzero;stroke:none;stroke-width:0.03527778"
       d="m -574.36399,72.219037 c -2.68464,2.557639 -5.40103,8.949973 -13.66661,8.830029 -5.89492,-0.04939 -11.86745,0.613833 -14.7567,0.970139 -1.12536,0.194027 -1.78152,0.275166 -1.78152,0.275166 l -0.29281,-9.36625 c 0,0 0.11994,0.01411 0.38806,-0.03175 1.99672,-0.299861 12.13555,-1.859139 16.15016,-4.522612 4.5085,-3.019778 15.04245,-0.218722 15.04245,-0.218722 0,0 1.61925,1.55575 -1.08303,4.064"
       inkscape:connector-curvature="0" />
    <path
       id="path60"
       style="fill:#233862;fill-opacity:1;fill-rule:nonzero;stroke:none;stroke-width:0.03527778"
       d="m -748.86235,384.81897 h -41.66412 c 0,0 -0.99836,-6.35 1.17793,-11.16541 2.08491,-4.62492 5.35128,-6.72395 4.56917,-12.319 2.64725,2.72697 6.96243,5.7785 12.98575,4.97063 0.73802,1.19592 4.76392,7.59884 7.22913,9.36978 2.72274,1.95439 14.86358,1.25942 15.70214,9.144"
       inkscape:connector-curvature="0" />
    <path
       id="path62"
       style="fill:#233862;fill-opacity:1;fill-rule:nonzero;stroke:none;stroke-width:0.03527778"
       d="m -659.40425,384.81897 h -41.66412 c 0,0 -1.55751,-6.64633 1.17757,-11.16541 2.42147,-4.00403 1.49366,-6.28298 -0.29986,-9.59203 1.88736,0.77258 4.32929,1.47461 7.01746,1.32291 2.07574,-0.11994 4.27073,-1.06186 6.19583,-2.18016 1.79317,2.04258 9.47174,10.74561 11.87098,12.47069 2.72274,1.95439 14.86358,1.25942 15.70214,9.144"
       inkscape:connector-curvature="0" />
    <path
       id="path64"
       style="fill:#ffffff;fill-opacity:1;fill-rule:nonzero;stroke:none;stroke-width:0.03527778"
       d="m -712.65924,-19.594913 c 0,0 0.37571,2.208389 5.81343,2.215445 0,0 4.5653,0.0035 4.57658,-2.398889 0,0 -4.30247,-1.979084 -10.39001,0.183444"
       inkscape:connector-curvature="0" />
    <path
       id="path66"
       style="fill:#ed7d2b;fill-opacity:1;fill-rule:nonzero;stroke:none;stroke-width:0.03527778"
       d="m -757.83208,86.495955 c -1.64818,10.438695 -9.19798,31.383115 -5.68678,41.387895 -8.72737,-1.25236 -14.87276,-3.16795 -15.29503,-5.69736 -4.29437,-9.68023 6.21453,-27.76009 12.28301,-36.949952 0.76306,-1.153583 1.41676,-2.367139 1.95651,-3.626556 1.37195,-3.160889 2.03376,-6.604 1.89547,-10.075334 -0.18273,-4.748389 -0.58843,-9.359195 -1.08373,-13.677195 0,0 7.68385,17.54364 5.93055,28.638502"
       inkscape:connector-curvature="0" />
    <path
       id="path68"
       style="fill:#ff9843;fill-opacity:1;fill-rule:nonzero;stroke:none;stroke-width:0.03527778"
       d="m -698.85681,16.063867 c 0.28999,9.278056 7.00017,34.748614 8.59191,31.386641 1.81892,-3.834695 8.86425,-18.411473 12.1733,-18.947696 -0.17427,-0.673805 -13.71706,-15.645695 -14.30937,-15.472834 0,0 -3.67912,1.121834 -6.45584,3.033889"
       inkscape:connector-curvature="0" />
    <path
       id="path70"
       style="fill:#ffb27d;fill-opacity:1;fill-rule:nonzero;stroke:none;stroke-width:0.03527778"
       d="m -762.74169,147.67821 -6.91198,4.60022 c 0,0 -1.74872,-2.18369 -4.51802,-5.67972 -0.82726,-1.05128 -1.27071,-1.68628 -1.27071,-1.68628 -2.19145,-2.82222 -4.73816,-6.2865 -7.52334,-10.04006 l -0.0469,-0.0459 c -4.66795,-6.55461 -9.79487,-14.01233 -13.71882,-20.75391 -2.72662,-4.77662 -4.84963,-9.20398 -5.8868,-12.68237 -0.1143,-0.34572 -0.17674,-0.65264 -0.24765,-1.04775 -2.02883,-8.822969 1.69227,-26.338387 7.61506,-43.430471 0.81315,-2.360084 1.67323,-4.68489 2.49484,-6.960306 3.15066,-8.382001 6.69114,-16.256001 10.24749,-22.623641 2.08492,-3.827639 4.16349,-7.164917 6.16621,-9.655528 0.69426,-0.889 1.3469,-1.732139 2.05281,-2.448278 0.38171,-0.430389 0.76341,-0.850194 1.13947,-1.248833 4.15185,0.352777 12.86263,1.996722 19.32729,9.465028 -0.11007,0.391583 -0.22507,0.783167 -0.34255,1.185333 -2.61408,8.43139 -6.65092,18.778363 -10.83486,28.917197 -2.27683,5.570361 -4.60552,11.098389 -6.64457,16.298334 -1.29329,3.107972 -2.4638,6.071306 -3.51967,8.805334 -1.98931,5.242278 -3.46604,9.602612 -4.05306,12.657667 -0.39723,1.982612 0.16898,5.715001 1.23931,10.301114 1.83515,7.99042 5.32835,18.75367 8.57426,27.89414 1.32786,3.81353 2.63525,7.36247 3.72745,10.30464 1.74766,4.7625 2.93476,7.874 2.93476,7.874"
       inkscape:connector-curvature="0" />
    <path
       id="path72"
       style="fill:#ff9843;fill-opacity:1;fill-rule:nonzero;stroke:none;stroke-width:0.03527778"
       d="m -759.7198,49.82823 c -6.90386,-10.421056 -26.69187,-14.904862 -26.69187,-14.904862 11.16577,-35.42947406 40.48055,-32.1451127 40.48055,-32.1451127 0,0 -10.66412,36.8582247 -13.78868,47.0499747"
       inkscape:connector-curvature="0" />
    <path
       id="path74"
       style="fill:#ffb27d;fill-opacity:1;fill-rule:nonzero;stroke:none;stroke-width:0.03527778"
       d="m -769.65367,152.27843 c 0,0 1.81575,2.68111 2.0186,4.60728 0.2032,1.92969 1.92828,8.32203 4.16066,10.35403 2.23273,2.02847 7.30638,6.08894 8.01688,5.47864 0.71014,-0.61031 2.76577,-5.39398 0.86042,-8.77711 -0.86007,-1.52753 -2.02741,-5.78556 -3.56658,-6.81567 -1.86796,-1.25236 -4.578,-9.44739 -4.578,-9.44739 l -6.91198,4.60022"
       inkscape:connector-curvature="0" />
    <path
       id="path76"
       style="fill:#ffb27d;fill-opacity:1;fill-rule:nonzero;stroke:none;stroke-width:0.03527778"
       d="m -762.71347,148.7189 c 0,0 5.49699,2.79048 6.24099,5.02356 0.74437,2.23308 3.81565,6.73453 3.50097,7.25664 -0.3369,0.55739 -5.11563,-2.49061 -6.73947,-5.26345 -1.62383,-2.77283 -3.00249,-7.01675 -3.00249,-7.01675"
       inkscape:connector-curvature="0" />
    <path
       id="path78"
       style="fill:#ed7d2b;fill-opacity:1;fill-rule:nonzero;stroke:none;stroke-width:0.03527778"
       d="M -631.9091,122.75446 -430.61409,2.2455608 c 11.09839,-6.6463338 24.9555,-6.6463338 36.05742,0 L -193.26166,122.75446 V 319.16703 L -631.9091,297.17486 v -174.4204"
       inkscape:connector-curvature="0" />
    <path
       id="path80"
       style="fill:#fcecdb;fill-opacity:1;fill-rule:nonzero;stroke:none;stroke-width:0.03527778"
       d="M -231.01947,349.54825 H -594.1513 V 35.73123 h 363.13183 v 313.81702"
       inkscape:connector-curvature="0" />
    <path
       id="path82"
       style="fill:#efcbab;fill-opacity:1;fill-rule:nonzero;stroke:none;stroke-width:0.03527778"
       d="m -583.06702,49.422536 c 0,-2.06375 1.67217,-3.732389 3.73239,-3.732389 2.06375,0 3.73592,1.668639 3.73592,3.732389 0,2.060222 -1.67217,3.732389 -3.73592,3.732389 -2.06022,0 -3.73239,-1.672167 -3.73239,-3.732389"
       inkscape:connector-curvature="0" />
    <path
       id="path84"
       style="fill:#efcbab;fill-opacity:1;fill-rule:nonzero;stroke:none;stroke-width:0.03527778"
       d="m -249.7943,49.422536 c 0,-2.06375 1.67216,-3.732389 3.73239,-3.732389 2.06375,0 3.73591,1.668639 3.73591,3.732389 0,2.060222 -1.67216,3.732389 -3.73591,3.732389 -2.06023,0 -3.73239,-1.672167 -3.73239,-3.732389"
       inkscape:connector-curvature="0" />
    <path
       id="path86"
       style="fill:#efcbab;fill-opacity:1;fill-rule:nonzero;stroke:none;stroke-width:0.03527778"
       d="m -246.06191,49.82823 h -333.27272 v -0.811388 h 333.27272 v 0.811388"
       inkscape:connector-curvature="0" />
    <path
       id="path88"
       style="fill:#efcbab;fill-opacity:1;fill-rule:nonzero;stroke:none;stroke-width:0.03527778"
       d="M -579.74032,381.21006 V 47.937341 h 0.81139 V 381.21006 h -0.81139"
       inkscape:connector-curvature="0" />
    <path
       id="path90"
       style="fill:#efcbab;fill-opacity:1;fill-rule:nonzero;stroke:none;stroke-width:0.03527778"
       d="M -246.33708,381.21006 V 47.937341 h 0.81139 V 381.21006 h -0.81139"
       inkscape:connector-curvature="0" />
    <path
       id="path92"
       style="fill:#ff9843;fill-opacity:1;fill-rule:nonzero;stroke:none;stroke-width:0.03527778"
       d="M -193.26166,122.21471 V 384.81897 H -631.9091 V 122.21471 l 219.32195,131.30389 219.32549,-131.30389"
       inkscape:connector-curvature="0" />
    <path
       id="path94"
       style="fill:#ed7d2b;fill-opacity:1;fill-rule:nonzero;stroke:none;stroke-width:0.03527778"
       d="M -631.9091,384.81897 -430.99862,240.7798 c 11.00667,-7.89164 25.81628,-7.89164 36.82295,0 l 200.91401,144.03917 H -631.9091"
       inkscape:connector-curvature="0" />
    <path
       id="path96"
       style="fill:#efcbab;fill-opacity:1;fill-rule:nonzero;stroke:none;stroke-width:0.03527778"
       d="m -345.62992,79.207566 h -132.39751 c -1.92264,0 -3.49603,-1.573389 -3.49603,-3.496028 0,-1.922639 1.57339,-3.496028 3.49603,-3.496028 h 132.39751 c 1.92264,0 3.49603,1.573389 3.49603,3.496028 0,1.922639 -1.57339,3.496028 -3.49603,3.496028"
       inkscape:connector-curvature="0" />
    <path
       id="path98"
       style="fill:#efcbab;fill-opacity:1;fill-rule:nonzero;stroke:none;stroke-width:0.03527778"
       d="m -311.52689,93.230483 h -200.60357 c -1.92264,0 -3.49603,-1.573389 -3.49603,-3.496028 0,-1.922639 1.57339,-3.496028 3.49603,-3.496028 h 200.60357 c 1.92264,0 3.49603,1.573389 3.49603,3.496028 0,1.922639 -1.57339,3.496028 -3.49603,3.496028"
       inkscape:connector-curvature="0" />
    <path
       id="path100"
       style="fill:#efcbab;fill-opacity:1;fill-rule:nonzero;stroke:none;stroke-width:0.03527778"
       d="m -337.54072,136.73151 h -145.14337 c -1.39348,0 -2.52942,-1.13947 -2.52942,-2.52941 0,-1.38995 1.13594,-2.52942 2.52942,-2.52942 h 145.14337 c 1.38994,0 2.52941,1.13947 2.52941,2.52942 0,1.38994 -1.13947,2.52941 -2.52941,2.52941"
       inkscape:connector-curvature="0" />
    <path
       id="path102"
       style="fill:#efcbab;fill-opacity:1;fill-rule:nonzero;stroke:none;stroke-width:0.03527778"
       d="m -468.11084,149.93951 h -40.92576 c -1.38994,0 -2.52941,-1.13947 -2.52941,-2.52941 0,-1.38995 1.13947,-2.52942 2.52941,-2.52942 h 40.92576 c 1.38994,0 2.52941,1.13947 2.52941,2.52942 0,1.38994 -1.13947,2.52941 -2.52941,2.52941"
       inkscape:connector-curvature="0" />
    <path
       id="path104"
       style="fill:#efcbab;fill-opacity:1;fill-rule:nonzero;stroke:none;stroke-width:0.03527778"
       d="m -406.38884,149.93951 h -49.44534 c -1.38994,0 -2.52589,-1.13947 -2.52589,-2.52941 0,-1.38995 1.13595,-2.52942 2.52589,-2.52942 h 49.44534 c 1.38994,0 2.52942,1.13947 2.52942,2.52942 0,1.38994 -1.13948,2.52941 -2.52942,2.52941"
       inkscape:connector-curvature="0" />
    <path
       id="path106"
       style="fill:#efcbab;fill-opacity:1;fill-rule:nonzero;stroke:none;stroke-width:0.03527778"
       d="m -311.19175,149.93951 h -85.47453 c -1.38995,0 -2.52942,-1.13947 -2.52942,-2.52941 0,-1.38995 1.13947,-2.52942 2.52942,-2.52942 h 85.47453 c 1.38994,0 2.52942,1.13947 2.52942,2.52942 0,1.38994 -1.13948,2.52941 -2.52942,2.52941"
       inkscape:connector-curvature="0" />
    <path
       id="path108"
       style="fill:#efcbab;fill-opacity:1;fill-rule:nonzero;stroke:none;stroke-width:0.03527778"
       d="m -406.06428,165.29593 h -79.50201 c -1.38994,0 -2.52589,-1.13594 -2.52589,-2.52941 0,-1.38995 1.13595,-2.52942 2.52589,-2.52942 h 79.50201 c 1.38994,0 2.52941,1.13947 2.52941,2.52942 0,1.39347 -1.13947,2.52941 -2.52941,2.52941"
       inkscape:connector-curvature="0" />
    <path
       id="path110"
       style="fill:#efcbab;fill-opacity:1;fill-rule:nonzero;stroke:none;stroke-width:0.03527778"
       d="m -334.66206,165.29593 h -62.61806 c -1.38994,0 -2.52589,-1.13594 -2.52589,-2.52941 0,-1.38995 1.13595,-2.52942 2.52589,-2.52942 h 62.61806 c 1.38995,0 2.52942,1.13947 2.52942,2.52942 0,1.39347 -1.13947,2.52941 -2.52942,2.52941"
       inkscape:connector-curvature="0" />
    <path
       id="path112"
       style="fill:#f99746;fill-opacity:1;fill-rule:nonzero;stroke:none;stroke-width:0.03527778"
       d="m -403.98995,215.55619 c -0.78317,-1.46756 0.33867,-3.27731 1.61925,-4.47323 -0.50095,1.50284 -1.04422,2.99509 -1.61925,4.47323 z m -2.36361,-21.51239 c -0.0176,-0.74789 0.37747,-2.10962 1.23472,-2.09551 -0.38806,0.83962 -0.78669,1.67217 -1.2065,2.49414 -0.0141,-0.13405 -0.0247,-0.26811 -0.0282,-0.39863 z m 22.62364,2.48002 c -4.78367,3.96875 -9.89895,7.27781 -15.28939,10.29759 0.45508,-1.42875 0.83608,-2.91042 0.76553,-4.23334 -0.0953,-1.82033 -1.5487,-2.61761 -3.00214,-3.37255 -0.35984,-0.18697 -0.69498,-0.38453 -1.03011,-0.58209 0.56444,-0.55386 0.85372,-1.31938 0.4833,-2.159 -0.61383,-1.37583 -2.33539,-1.15358 -2.91747,0.11995 -0.10936,0.23636 -0.17286,0.46567 -0.19756,0.69144 -0.23636,-0.12347 -0.41275,-0.25752 -0.56797,-0.44802 0.88547,-1.65453 1.72156,-3.33728 2.49061,-5.05884 0.17286,-0.38805 -0.0459,-0.84667 -0.35983,-1.0795 -1.27706,-0.96308 -3.01978,-0.65264 -4.04636,0.55739 -1.21709,1.43581 -0.91017,3.6195 -0.32809,5.24933 0.0423,0.11642 0.0882,0.22931 0.13406,0.3422 -1.12889,2.03553 -2.35656,4.01814 -3.67242,5.9443 -0.11994,-0.12347 -0.24694,-0.24694 -0.37041,-0.37041 -0.3422,-0.33161 -0.70909,-0.762 -1.02659,-1.23472 0.60325,-1.56987 0.98778,-3.21734 1.13242,-4.93537 0.0635,-0.76552 -0.70203,-1.143 -1.34056,-0.90663 -1.77094,0.65616 -2.72697,2.45533 -2.49766,4.30741 0.0811,0.635 0.28575,1.24178 0.57855,1.8027 -0.39511,0.85725 -0.8643,1.6898 -1.41816,2.49061 -0.35984,0.51858 -0.10231,1.04775 0.3175,1.29469 -0.57856,1.9297 -1.36173,3.90878 -2.69523,5.30225 -1.09008,1.13595 -3.12208,2.00025 -4.44852,0.64911 -0.83962,-0.85372 -0.94545,-2.28247 -1.06187,-3.41136 -0.28222,-2.78341 -0.49036,-5.67266 -0.39158,-8.47372 0.0494,-1.32644 0.1905,-2.67406 0.64558,-3.92642 0.28223,-0.77964 0.67381,-1.96144 1.05481,-0.61736 0.18344,0.65617 -0.0706,1.67922 -0.13758,2.3495 -0.11995,1.19592 1.73566,1.3335 1.85561,0.14111 0.14111,-1.40052 0.76905,-4.34622 -0.81845,-5.22464 -1.31586,-0.73025 -2.52589,0.3175 -3.13619,1.41112 -2.19075,3.93347 -1.31939,9.34155 -0.98778,13.61722 0.26106,3.41136 1.53811,7.59883 5.89492,6.51228 4.09928,-1.01953 5.60564,-6.18773 6.54755,-9.74373 0.06,-0.22225 0.0423,-0.42333 -0.0282,-0.59619 l 0.0494,-0.0882 c 0.16933,0.16934 0.3422,0.33867 0.51506,0.51153 0.23989,0.21167 0.47272,0.44097 0.69497,0.67381 -0.43039,0.59619 -0.87136,1.18886 -1.31939,1.77447 -0.254,0.33161 -0.17992,0.82903 0.0741,1.13594 1.37936,1.65806 3.85939,0.42687 3.81,-1.61219 -0.0106,-0.47272 -0.127,-0.89253 -0.31044,-1.27706 1.29469,-1.86266 2.50472,-3.78177 3.62655,-5.75027 0.58562,0.5715 1.32645,0.93839 2.23662,0.89605 0.06,-0.004 0.12347,-0.0106 0.18697,-0.0176 0.47625,0.50448 1.07597,0.92428 1.62278,1.2312 0.52916,0.29986 1.13947,0.4833 1.61572,0.87136 0.88194,0.72319 0.62089,1.54869 0.42686,2.57528 -0.25753,1.35114 -0.68792,2.70227 -1.08303,4.01814 -1.87325,1.07597 -3.7218,2.44475 -4.35328,4.60022 -0.57502,1.9685 -0.0635,4.0393 1.62278,5.25992 0.508,0.37041 1.18181,0.0741 1.40053,-0.46214 1.05833,-2.59998 2.01083,-5.24228 2.8328,-7.92692 0.0247,-0.0847 0.0529,-0.17286 0.0811,-0.25753 1.65453,-0.94192 3.38667,-1.77094 5.02003,-2.73755 4.34622,-2.57175 8.46667,-5.50334 12.34722,-8.72773 0.92428,-0.76552 -0.30691,-2.16605 -1.22766,-1.397"
       inkscape:connector-curvature="0" />
    <path
       id="path114"
       style="fill:#dce9fb;fill-opacity:1;fill-rule:nonzero;stroke:none;stroke-width:0.03527778"
       d="m -471.20471,-19.838329 -18.90889,-41.719503 40.8552,7.200195 c 0.44803,0.08114 0.89959,0.119944 1.34409,0.119944 2.69875,0 5.2458,-1.414639 6.65338,-3.792361 l 20.83506,-35.115502 18.90889,41.719502 -69.68773,31.587725"
       inkscape:connector-curvature="0" />
    <path
       id="path116"
       style="fill:#cee1f6;fill-opacity:1;fill-rule:nonzero;stroke:none;stroke-width:0.03527778"
       d="m -447.91431,-54.237693 c -0.4445,0 -0.89606,-0.0388 -1.34409,-0.119944 l -40.8552,-7.200195 69.68773,-31.587724 -20.83506,35.115502 c -1.40758,2.377722 -3.95463,3.792361 -6.65338,3.792361"
       inkscape:connector-curvature="0" />
    <path
       id="path118"
       style="fill:#dce9fb;fill-opacity:1;fill-rule:nonzero;stroke:none;stroke-width:0.03527778"
       d="m -864.73081,222.56588 -9.94728,-26.67706 25.025,6.20889 c 0.38488,0.0952 0.77364,0.14111 1.15852,0.14111 1.55646,0 3.0473,-0.75847 3.95888,-2.07786 l 14.41556,-20.88797 9.94692,26.67706 -44.5576,16.61583"
       inkscape:connector-curvature="0" />
    <path
       id="path120"
       style="fill:#cee1f6;fill-opacity:1;fill-rule:nonzero;stroke:none;stroke-width:0.03527778"
       d="m -848.49457,202.23882 c -0.38488,0 -0.77364,-0.0459 -1.15852,-0.14111 l -25.025,-6.20889 44.55796,-16.61583 -14.41556,20.88797 c -0.91158,1.31939 -2.40242,2.07786 -3.95888,2.07786"
       inkscape:connector-curvature="0" />
    <path
       id="path122"
       style="fill:#dce9fb;fill-opacity:1;fill-rule:nonzero;stroke:none;stroke-width:0.03527778"
       d="m -81.04657,72.88226 -87.49242,-23.346835 13.97705,-52.3804479 32.00048,37.2356969 c 1.77447,2.06375 4.32858,3.189111 6.94972,3.189111 1.04775,0 2.10961,-0.179916 3.13267,-0.553861 L -67.065985,20.501812 -81.04657,72.88226"
       inkscape:connector-curvature="0" />
    <path
       id="path124"
       style="fill:#cee1f6;fill-opacity:1;fill-rule:nonzero;stroke:none;stroke-width:0.03527778"
       d="m -115.61174,37.579785 c -2.62114,0 -5.17525,-1.125361 -6.94972,-3.189111 l -32.00048,-37.2356969 87.495955,23.3468349 -45.413085,16.524112 c -1.02306,0.373945 -2.08492,0.553861 -3.13267,0.553861"
       inkscape:connector-curvature="0" />
    <path
       id="path126"
       style="fill:#afcdfb;fill-opacity:1;fill-rule:nonzero;stroke:none;stroke-width:0.03527778"
       d="m -822.782,256.7571 c -0.20991,0 -0.38771,-0.16227 -0.40429,-0.37394 -0.0173,-0.22578 0.15029,-0.41981 0.3736,-0.43744 3.77154,-0.28928 6.11857,-0.39159 6.14186,-0.39159 0.22472,-0.0176 0.41275,0.16581 0.42227,0.38806 0.01,0.22578 -0.16439,0.41275 -0.38841,0.42333 -0.0229,0 -2.35761,0.0988 -6.11328,0.38806 z m -12.15567,1.19945 c -0.20249,0 -0.37782,-0.14817 -0.40252,-0.35631 -0.0272,-0.22225 0.13159,-0.42333 0.35419,-0.45155 2.00025,-0.23989 4.04531,-0.46567 6.07836,-0.66675 0.22155,-0.0176 0.42193,0.14111 0.4438,0.36336 0.0219,0.22225 -0.14111,0.42333 -0.36407,0.4445 -2.02706,0.20108 -4.06612,0.42333 -6.06072,0.66675 z m -12.08228,1.75683 c -0.19438,0 -0.36583,-0.13758 -0.3997,-0.33514 -0.0381,-0.22225 0.11007,-0.43039 0.33126,-0.46919 1.94627,-0.33514 3.97863,-0.65617 6.04026,-0.95603 0.22507,-0.0353 0.42792,0.12347 0.46002,0.3422 0.0321,0.22225 -0.12171,0.43038 -0.34325,0.46213 -2.05493,0.29634 -4.07988,0.61737 -6.0191,0.9525 z m -11.9567,2.46592 c -0.18239,0 -0.34855,-0.12347 -0.39405,-0.31045 -0.0533,-0.21519 0.0801,-0.43744 0.29774,-0.49036 1.89759,-0.46566 3.90701,-0.91722 5.97288,-1.34055 0.22013,-0.0423 0.43427,0.0988 0.47907,0.3175 0.0452,0.21872 -0.0967,0.43391 -0.31609,0.47978 -2.05598,0.4198 -4.05518,0.86783 -5.94219,1.3335 -0.0328,0.007 -0.0653,0.0106 -0.0974,0.0106 z m 269.35855,0.7373 c -0.1905,0 -0.36336,-0.13405 -0.39864,-0.32808 -0.0423,-0.22225 0.10231,-0.43392 0.32103,-0.47625 0.41275,-0.0776 0.64911,-0.12347 0.69497,-0.13053 0.23989,-0.0564 0.49742,0.13759 0.49742,0.39511 0,0.33514 -0.0388,0.3422 -1.0407,0.5327 z m -12.03678,2.25778 c -0.1905,0 -0.36336,-0.13758 -0.39864,-0.33161 -0.0388,-0.21872 0.10583,-0.43039 0.32456,-0.47272 2.29305,-0.42333 4.30389,-0.79728 6.01486,-1.11831 0.21872,-0.0423 0.43039,0.10231 0.47272,0.32456 0.0423,0.21872 -0.10231,0.43039 -0.32456,0.47272 -1.71097,0.32103 -3.7218,0.69497 -6.01486,1.11831 z m -268.99978,0.52564 c -0.16439,0 -0.31961,-0.0988 -0.38029,-0.26458 -0.0783,-0.20814 0.0286,-0.44097 0.23883,-0.52211 1.79811,-0.67028 3.75426,-1.31939 5.81307,-1.93675 0.2159,-0.0635 0.44133,0.06 0.50518,0.27516 0.0642,0.2152 -0.0578,0.44098 -0.2727,0.50448 -2.04187,0.6103 -3.98039,1.25589 -5.76227,1.91911 -0.0466,0.0176 -0.0945,0.0247 -0.14182,0.0247 z m 256.98417,1.67217 c -0.19403,0 -0.36336,-0.13758 -0.39864,-0.33514 -0.0423,-0.21872 0.10583,-0.43039 0.32455,-0.47272 2.1202,-0.381 4.1275,-0.74789 6.00781,-1.09009 0.22225,-0.0423 0.43392,0.10584 0.47272,0.32456 0.0388,0.22225 -0.10583,0.43392 -0.32455,0.47272 -1.88384,0.34572 -3.89114,0.70909 -6.01134,1.09361 z m -12.01561,2.14842 c -0.19403,0 -0.36336,-0.13759 -0.39864,-0.33514 -0.0388,-0.22225 0.10583,-0.43039 0.32808,-0.4692 2.07433,-0.37041 4.07811,-0.72672 6.00781,-1.06891 0.21872,-0.0423 0.43039,0.10583 0.46919,0.32808 0.0388,0.21872 -0.10583,0.43039 -0.32808,0.46919 -1.9297,0.34573 -3.93347,0.70203 -6.00781,1.06892 z m -255.84822,1.61572 c -0.12806,0 -0.25436,-0.0635 -0.33338,-0.17639 -0.12806,-0.18345 -0.0833,-0.43392 0.1009,-0.56445 1.53317,-1.06891 3.32422,-2.10608 5.32306,-3.07975 0.20108,-0.0988 0.4445,-0.0176 0.54293,0.18698 0.0981,0.20108 0.0145,0.4445 -0.18698,0.53975 -1.96109,0.95955 -3.71545,1.97202 -5.21476,3.01977 -0.0706,0.0494 -0.15169,0.0741 -0.23177,0.0741 z m 243.82908,0.49036 c -0.19403,0 -0.36336,-0.14111 -0.39864,-0.33867 -0.0388,-0.21872 0.10936,-0.43039 0.33161,-0.46919 2.04964,-0.35631 4.05342,-0.70556 6.0078,-1.04775 0.22225,-0.0353 0.43039,0.10936 0.4692,0.33161 0.0388,0.21872 -0.10936,0.43039 -0.32808,0.46919 -1.95439,0.3422 -3.95817,0.69145 -6.01134,1.04775 z m -12.01914,2.06022 c -0.19403,0 -0.36689,-0.13758 -0.39864,-0.33867 -0.0388,-0.21872 0.10936,-0.42686 0.33161,-0.46566 2.03905,-0.34572 4.04283,-0.68792 6.01133,-1.02659 0.21873,-0.0388 0.43039,0.10937 0.46567,0.33162 0.0388,0.22225 -0.10936,0.43038 -0.33161,0.46919 -1.96497,0.33867 -3.97228,0.68086 -6.01134,1.02658 z m -12.02655,2.02142 c -0.19509,0 -0.36724,-0.14111 -0.40005,-0.33867 -0.037,-0.22225 0.11289,-0.43039 0.33373,-0.46919 2.03129,-0.33514 4.03648,-0.67028 6.01345,-1.00189 0.22401,-0.0388 0.43039,0.10936 0.46743,0.33161 0.037,0.22225 -0.11219,0.43039 -0.33302,0.46919 -1.97768,0.33161 -3.98322,0.66675 -6.01451,1.00189 z m -12.0329,1.97203 c -0.19509,0 -0.36759,-0.14112 -0.40005,-0.33867 -0.036,-0.22225 0.11465,-0.43039 0.33585,-0.46567 2.02565,-0.32808 4.03189,-0.65616 6.01627,-0.98072 0.22084,-0.0388 0.43003,0.11289 0.46637,0.33161 0.036,0.22225 -0.11395,0.43039 -0.33514,0.4692 -1.98508,0.32455 -3.99133,0.65263 -6.01768,0.98072 z m -12.03854,1.92969 c -0.1965,0 -0.36901,-0.14111 -0.40076,-0.34219 -0.0346,-0.22225 0.11642,-0.43039 0.33796,-0.46567 2.02142,-0.3175 4.02837,-0.63853 6.0191,-0.95603 0.21978,-0.0353 0.42933,0.11289 0.46496,0.33514 0.0353,0.22225 -0.11501,0.43039 -0.33655,0.46567 -1.99073,0.3175 -3.99874,0.63852 -6.02086,0.95955 z m -202.84583,0.9525 -0.0804,-0.007 c -0.21978,-0.0459 -0.36195,-0.25752 -0.31785,-0.47625 0.39017,-1.93675 1.30528,-3.80294 2.72027,-5.54566 0.14181,-0.17286 0.39687,-0.20109 0.57115,-0.06 0.17391,0.14111 0.20037,0.39863 0.0593,0.5715 -1.33138,1.64041 -2.1911,3.38666 -2.55481,5.19288 -0.0388,0.19403 -0.20814,0.32456 -0.39759,0.32456 z m 190.79952,0.92428 c -0.19649,0 -0.36971,-0.14111 -0.4004,-0.3422 -0.0342,-0.22225 0.11783,-0.43039 0.33937,-0.46214 2.01895,-0.31044 4.02732,-0.62441 6.02298,-0.93486 0.22119,-0.0317 0.42898,0.11642 0.4639,0.33867 0.0346,0.22225 -0.11712,0.43039 -0.33866,0.46567 -1.99637,0.31044 -4.00509,0.62089 -6.02474,0.93133 z m -12.053,1.82739 c -0.19791,0 -0.37112,-0.14464 -0.40111,-0.34572 -0.0332,-0.22225 0.11994,-0.43039 0.34149,-0.46214 2.01683,-0.29986 4.0259,-0.60325 6.0265,-0.90664 0.22366,-0.0317 0.42863,0.11994 0.46214,0.34219 0.0339,0.22225 -0.11888,0.42686 -0.34008,0.46214 -2.00166,0.30339 -4.01179,0.60325 -6.02897,0.90311 z m -12.06218,1.76389 c -0.19826,0 -0.37218,-0.14464 -0.40111,-0.34573 -0.0321,-0.22225 0.12206,-0.42686 0.34396,-0.46213 2.01471,-0.28928 4.02555,-0.57856 6.03074,-0.87489 0.22154,-0.0353 0.42792,0.11994 0.46037,0.34572 0.0325,0.21872 -0.121,0.42686 -0.3429,0.45861 -2.00589,0.29281 -4.01743,0.58561 -6.0325,0.87489 z m -12.07065,1.70744 c -0.19931,0 -0.37359,-0.14817 -0.40181,-0.35278 -0.0307,-0.22225 0.12453,-0.42686 0.34643,-0.45508 2.01365,-0.27869 4.0259,-0.56092 6.03567,-0.84314 0.21873,-0.0353 0.42757,0.11995 0.45862,0.3422 0.0314,0.22225 -0.12312,0.43038 -0.34537,0.45861 -2.01048,0.28575 -4.02343,0.56797 -6.03744,0.84666 z m -12.0971,1.63689 c -0.20038,0 -0.375,-0.15169 -0.40181,-0.35278 -0.0293,-0.22578 0.12664,-0.42686 0.34925,-0.45861 2.01295,-0.26458 4.02766,-0.53269 6.04273,-0.80786 0.22542,-0.0282 0.42651,0.127 0.45649,0.34925 0.03,0.22225 -0.12559,0.42686 -0.34748,0.45508 -2.01613,0.27517 -4.0319,0.54328 -6.04556,0.80786 z m -12.06182,1.54869 c -0.20144,0 -0.37642,-0.14816 -0.40217,-0.35277 -0.0279,-0.22225 0.12982,-0.42686 0.35242,-0.45509 2.00378,-0.25047 4.01285,-0.50447 6.0251,-0.76552 0.22119,-0.0247 0.4258,0.13052 0.45437,0.35277 0.0286,0.22225 -0.12841,0.42686 -0.35066,0.45509 -2.0133,0.25752 -4.02308,0.51505 -6.02791,0.76552 z m -12.10205,1.47109 c -0.20284,0 -0.37817,-0.15522 -0.40252,-0.35984 -0.0261,-0.22225 0.13335,-0.42333 0.35596,-0.45155 2.00942,-0.23636 4.02696,-0.47625 6.05049,-0.71967 0.22225,-0.0282 0.4251,0.13053 0.45191,0.35278 0.0272,0.22225 -0.13159,0.42686 -0.35419,0.45156 -2.02459,0.24694 -4.04319,0.48683 -6.05367,0.72319 z m -114.67642,0.0917 c -0.0829,0 -0.16651,-0.0247 -0.23883,-0.0776 -1.17581,-0.85725 -2.02459,-1.82386 -2.52307,-2.87867 -0.36406,-0.77258 -0.6678,-1.54516 -0.9024,-2.29658 -0.0667,-0.2152 0.0529,-0.44097 0.26705,-0.508 0.21273,-0.067 0.44168,0.0529 0.508,0.26811 0.22331,0.71614 0.51329,1.45344 0.86149,2.18722 0.43956,0.93134 1.20226,1.79564 2.2673,2.57175 0.18097,0.13406 0.22084,0.38806 0.0889,0.56797 -0.0794,0.10937 -0.20285,0.16581 -0.32844,0.16581 z m 102.56203,1.27353 c -0.20425,0 -0.38064,-0.15522 -0.40287,-0.36336 -0.024,-0.22225 0.13723,-0.42334 0.36019,-0.44803 2.00766,-0.2152 4.02731,-0.44097 6.05649,-0.67028 0.22295,-0.0212 0.42404,0.13758 0.44908,0.35983 0.0251,0.22225 -0.13511,0.42334 -0.35807,0.44803 -2.03094,0.22931 -4.0513,0.45156 -6.06037,0.67028 z m -12.12744,1.24178 c -0.20637,0 -0.38312,-0.15523 -0.40322,-0.36337 -0.0219,-0.22577 0.14111,-0.42333 0.36442,-0.4445 2.00589,-0.19402 4.02766,-0.39863 6.06354,-0.60677 0.22154,-0.0176 0.42228,0.13758 0.44521,0.36336 0.0229,0.22225 -0.13935,0.4198 -0.36231,0.4445 -2.03694,0.20814 -4.06047,0.41275 -6.06813,0.60678 z m -12.14226,1.10419 c -0.2092,0 -0.38664,-0.16228 -0.40428,-0.37394 -0.019,-0.22225 0.14711,-0.41981 0.37042,-0.43745 2.00342,-0.16933 4.02766,-0.34572 6.07024,-0.53269 0.22543,-0.0176 0.42087,0.14464 0.44133,0.37041 0.0201,0.22225 -0.14429,0.41981 -0.3676,0.44098 -2.0447,0.18344 -4.0707,0.36336 -6.07589,0.52916 z m -66.88879,0.37394 -0.072,-0.007 c -2.24014,-0.40217 -4.24851,-0.88195 -5.969,-1.42875 -0.21343,-0.067 -0.33161,-0.29633 -0.26388,-0.508 0.0677,-0.2152 0.29633,-0.33514 0.50976,-0.26458 1.68699,0.53622 3.66078,1.00894 5.86635,1.40405 0.22083,0.0388 0.36759,0.25047 0.32808,0.4692 -0.0356,0.19755 -0.20638,0.33513 -0.39935,0.33513 z m 54.73066,0.55034 c -0.21167,0 -0.39017,-0.16228 -0.40464,-0.37747 -0.0152,-0.22578 0.15381,-0.41628 0.37783,-0.43392 1.99919,-0.13406 4.02554,-0.28222 6.07765,-0.43745 0.22331,-0.0176 0.4184,0.1517 0.43568,0.37395 0.0169,0.22225 -0.15063,0.4198 -0.37394,0.43744 -2.05423,0.15523 -4.08305,0.29986 -6.08471,0.43745 z m -12.17436,0.6985 c -0.21555,0 -0.39547,-0.16934 -0.40535,-0.38453 -0.0102,-0.22578 0.16263,-0.41628 0.38665,-0.42686 1.95368,-0.0882 4.0012,-0.19756 6.08436,-0.3175 0.22366,-0.004 0.41592,0.15875 0.42898,0.38453 0.0127,0.22225 -0.1584,0.41627 -0.38206,0.42686 -2.08633,0.11994 -4.13668,0.2293 -6.09353,0.3175 z m -30.45849,0.0917 h -0.025 c -2.14701,-0.13053 -4.19488,-0.29633 -6.08683,-0.49742 -0.22296,-0.0247 -0.38418,-0.22577 -0.36054,-0.44802 0.0236,-0.22225 0.22437,-0.38453 0.44662,-0.35984 1.8796,0.20109 3.91512,0.36689 6.04978,0.49389 0.22366,0.0141 0.39406,0.20814 0.38065,0.43039 -0.0127,0.21519 -0.19156,0.381 -0.40464,0.381 z m 18.2686,0.30692 c -0.22119,0 -0.40181,-0.17639 -0.40569,-0.39864 -0.004,-0.22578 0.17498,-0.40922 0.39899,-0.41275 1.9498,-0.0353 3.99874,-0.0847 6.09,-0.15522 0.23354,-0.0176 0.41169,0.16933 0.4191,0.39158 0.007,0.22578 -0.16827,0.41275 -0.39264,0.4198 -2.09515,0.0706 -4.14867,0.11995 -6.1027,0.15523 z m -6.09706,0.0459 h -10e-4 c -2.11419,-0.007 -4.16595,-0.0353 -6.09846,-0.0882 -0.22437,-0.007 -0.40076,-0.19402 -0.39476,-0.4198 0.006,-0.22225 0.18626,-0.39864 0.41698,-0.39159 1.92581,0.0529 3.97087,0.0811 6.07836,0.0882 0.22402,0 0.4057,0.17992 0.40499,0.40569 -7.1e-4,0.22225 -0.18239,0.4057 -0.40605,0.4057"
       inkscape:connector-curvature="0" />
    <path
       id="path128"
       style="fill:#afcdfb;fill-opacity:1;fill-rule:nonzero;stroke:none;stroke-width:0.03527778"
       d="m -576.05027,284.29847 50.00626,-28.33864 -45.6177,2.69522 3.52072,7.70467 -9.42269,10.43869 1.51341,7.50006"
       inkscape:connector-curvature="0" />
    <path
       id="path130"
       style="fill:#ffffff;fill-opacity:1;fill-rule:nonzero;stroke:none;stroke-width:0.03527778"
       d="m -526.04401,255.95983 -52.40162,9.60261 -38.16703,26.50772 z"
       inkscape:connector-curvature="0" />
    <path
       id="path132"
       style="fill:#ffffff;fill-opacity:1;fill-rule:nonzero;stroke:none;stroke-width:0.03527778"
       d="m -571.66171,258.65505 45.6177,-2.69522 -47.71673,-13.98412 z"
       inkscape:connector-curvature="0" />
    <path
       id="path134"
       style="fill:#afcdfb;fill-opacity:1;fill-rule:nonzero;stroke:none;stroke-width:0.03527778"
       d="m -305.56494,-88.040862 56.769,8.985251 -37.35917,-26.310169 -2.04611,8.219723 -13.87475,2.293056 -3.48897,6.812139"
       inkscape:connector-curvature="0" />
    <path
       id="path136"
       style="fill:#ffffff;fill-opacity:1;fill-rule:nonzero;stroke:none;stroke-width:0.03527778"
       d="m -248.79594,-79.055611 -46.96884,-25.135419 -46.36911,-3.04094 z"
       inkscape:connector-curvature="0" />
    <path
       id="path138"
       style="fill:#ffffff;fill-opacity:1;fill-rule:nonzero;stroke:none;stroke-width:0.03527778"
       d="m -286.15511,-105.36578 37.35917,26.310169 -28.61028,-40.664699 z"
       inkscape:connector-curvature="0" />
    <path
       id="path140"
       style="fill:#233862;fill-opacity:1;fill-rule:nonzero;stroke:none;stroke-width:0.03527778"
       d="m -133.65985,141.97026 c 0,0 -11.57817,0.80434 -20.12245,21.64998 -8.61836,21.02555 10.65742,20.81742 4.16631,34.21239 -6.49464,13.39497 9.34508,21.38539 14.15697,32.35325 4.80836,10.96433 29.04773,37.42267 30.96684,49.48767 1.91911,12.065 23.470305,-12.54478 23.470305,-12.54478 0,0 21.907501,-23.368 14.054667,-36.94289 -12.946945,-22.3767 -1.732139,-27.23797 -2.137833,-39.73689 -0.405694,-12.49539 -24.126474,-61.73612 -64.554809,-48.47873"
       inkscape:connector-curvature="0" />
    <path
       id="path142"
       style="fill:#ffad76;fill-opacity:1;fill-rule:nonzero;stroke:none;stroke-width:0.03527778"
       d="m -139.94635,216.75563 c 0,0 -44.81336,19.53331 -53.32589,19.15936 -8.51253,-0.37041 -60.96706,-15.9773 -60.96706,-15.9773 l 1.33703,9.02405 c 0,0 40.48125,23.28334 54.63117,24.60273 13.93472,1.30175 61.57736,-12.50598 66.17758,-15.41992 4.60023,-2.91395 5.51392,-18.4397 -7.85283,-21.38892"
       inkscape:connector-curvature="0" />
    <path
       id="path144"
       style="fill:#ffb27d;fill-opacity:1;fill-rule:nonzero;stroke:none;stroke-width:0.03527778"
       d="m -143.56232,238.16924 c 4.12044,2.8575 9.28158,5.21406 15.76564,6.70984 24.30286,5.61622 33.616193,-14.9225 37.112221,-29.02303 -3.312584,-1.89795 -6.431139,-2.31423 -8.230306,-2.52942 -1.756835,-0.20814 -3.605385,-0.34572 -5.136445,-0.41981 -2.72697,-2.09197 -6.7945,-10.64683 -7.69408,-23.92891 l -1.143,0.30691 -19.15231,5.24228 c 0,0 0.87842,6.08895 1.30881,11.84275 0.33161,4.50497 0.91722,7.11906 0.0635,8.17034 -1.49578,0.32455 -2.92453,2.22602 -2.92453,2.22602 l -0.0106,0.0176 c -0.25752,0.42334 -5.81377,9.56028 -9.95891,21.38539"
       inkscape:connector-curvature="0" />
    <path
       id="path146"
       style="fill:#ed985f;fill-opacity:1;fill-rule:nonzero;stroke:none;stroke-width:0.03527778"
       d="m -132.0406,194.53063 c 0,0 0.87842,6.08542 1.30528,11.84275 10.85144,-1.08656 15.88911,-11.41589 17.84703,-17.08503 l -19.15231,5.24228"
       inkscape:connector-curvature="0" />
    <path
       id="path148"
       style="fill:#ffb27d;fill-opacity:1;fill-rule:nonzero;stroke:none;stroke-width:0.03527778"
       d="m -135.28263,200.24563 c 0,0 25.75631,-1.4217 24.62389,-17.44486 -1.13241,-16.0267 1.43228,-27.00162 -15.06008,-26.77231 -16.49236,0.2293 -19.25109,6.56872 -20.17536,12.01208 -0.92428,5.43984 3.88408,32.16276 10.61155,32.20509"
       inkscape:connector-curvature="0" />
    <path
       id="path150"
       style="fill:#739af0;fill-opacity:1;fill-rule:nonzero;stroke:none;stroke-width:0.03527778"
       d="m -83.346681,290.53558 c 2.324806,-11.88861 9.909529,-59.39367 2.324806,-74.67953 -2.723445,-5.49275 -13.409084,-5.98664 -25.135415,-5.50686 -3.64773,2.35655 -17.55423,11.25713 -23.26217,10.14588 -0.0635,-0.0106 -0.17286,-0.0353 -0.32103,-0.0741 -2.68817,-0.6738 -3.17147,-4.25097 -0.9278,-5.8808 0.004,-0.004 -6.33942,1.12888 -13.55373,2.48708 -4.07105,0.76905 -15.06008,6.4523 -15.06008,6.4523 0,0 5.53155,9.99773 13.6913,13.44789 -1.38641,12.41073 0.67734,17.88584 13.5502,46.54904 10.87967,24.22877 -1.46756,46.04455 -1.46756,46.04455 0,0 64.043286,51.48792 64.399591,25.27301 0.268111,-19.73792 -17.212029,-49.06081 -14.238112,-64.25848"
       inkscape:connector-curvature="0" />
    <path
       id="path152"
       style="fill:#233862;fill-opacity:1;fill-rule:nonzero;stroke:none;stroke-width:0.03527778"
       d="m -136.68316,385.51042 c -3.48191,-0.39511 -6.61811,-2.30011 -8.56544,-5.21406 -0.30692,-0.46566 -0.63853,-0.95955 -0.99131,-1.49225 -7.28839,-11.03489 -10.12472,-44.831 -26.52183,-80.8355 -3.99345,-8.76653 -18.33034,-10.34345 -22.23911,-20.25298 0,0 -9.62378,-32.11689 18.415,-33.06233 28.03878,-0.94897 75.09228,89.36214 75.83311,98.83423 0.71967,9.17575 18.538476,48.16828 -35.93042,42.02289"
       inkscape:connector-curvature="0" />
    <path
       id="path154"
       style="fill:#172b4c;fill-opacity:1;fill-rule:nonzero;stroke:none;stroke-width:0.03527778"
       d="m -248.12214,384.76958 h 39.90623 c 0,0 1.49225,-6.36411 -1.12889,-10.69622 -2.31775,-3.83116 -1.42875,-6.01486 0.28928,-9.18633 -1.80622,0.74083 -4.14514,1.41464 -6.72042,1.26647 -1.98967,-0.11289 -4.09222,-1.016 -5.93725,-2.08844 -1.71803,1.96144 -9.06992,10.29405 -11.37003,11.94505 -2.60703,1.87678 -14.23458,1.2065 -15.03892,8.75947"
       inkscape:connector-curvature="0" />
    <path
       id="path156"
       style="fill:#5486d6;fill-opacity:1;fill-rule:nonzero;stroke:none;stroke-width:0.03527778"
       d="m -87.55532,228.30558 c 0,0 5.196417,47.25811 -28.49034,57.15705 -33.68322,9.90248 -43.24703,-43.47633 -16.04786,-47.31808 27.19564,-3.83822 44.5382,-9.83897 44.5382,-9.83897"
       inkscape:connector-curvature="0" />
    <path
       id="path158"
       style="fill:#233862;fill-opacity:1;fill-rule:nonzero;stroke:none;stroke-width:0.03527778"
       d="m -195.91455,253.93488 c -2.40242,18.01636 -11.78631,74.87709 -28.33864,102.61954 -5.33753,8.94291 13.44436,13.95589 13.54667,13.93119 2.51883,-0.65969 6.71689,-4.6743 8.65011,-6.42055 13.44083,-12.11087 40.72114,-46.4044 40.72114,-73.8999 0,-13.40908 0.23283,-39.01369 -9.51442,-45.51892 -6.00427,-4.00755 -24.10883,2.13431 -25.06486,9.28864"
       inkscape:connector-curvature="0" />
    <path
       id="path160"
       style="fill:#2b478b;fill-opacity:1;fill-rule:nonzero;stroke:none;stroke-width:0.03527778"
       d="m -112.88477,384.76958 c 0,0 -1.48166,-2.05669 -4.06047,-5.96547 -3.06564,-4.64961 -6.46289,-13.79714 -10.58333,-25.52347 -4.32859,-12.30842 -9.46503,-27.45317 -15.88206,-43.21175 -1.97908,-4.86481 -4.08164,-9.78606 -6.31825,-14.70378 -3.99697,-8.763 -14.98247,-7.55298 -18.89125,-17.4625 0,0 -15.25411,-34.34998 12.78467,-35.29895 28.03878,-0.94897 81.31528,91.89156 84.377391,100.88387 3.351389,9.8425 19.706168,50.71533 -41.426701,41.28205"
       inkscape:connector-curvature="0" />
    <path
       id="path162"
       style="fill:#233862;fill-opacity:1;fill-rule:nonzero;stroke:none;stroke-width:0.03527778"
       d="m -218.82747,384.76958 h 39.90623 c 0,0 1.49225,-6.36411 -1.12889,-10.69622 -2.31775,-3.83116 -1.42875,-6.01486 0.28928,-9.18633 -1.80975,0.74083 -4.14514,1.41464 -6.72042,1.26647 -1.98967,-0.11289 -4.09222,-1.016 -5.93725,-2.08844 -1.71803,1.96144 -9.06992,10.29405 -11.37003,11.94505 -2.60703,1.87678 -14.23458,1.2065 -15.03892,8.75947"
       inkscape:connector-curvature="0" />
    <path
       id="path164"
       style="fill:#23407a;fill-opacity:1;fill-rule:nonzero;stroke:none;stroke-width:0.03527778"
       d="m -127.52857,353.28064 c -4.32859,-12.30842 -9.46503,-27.45317 -15.88206,-43.21175 1.6757,-11.93801 5.29167,-22.38376 11.37003,-26.59239 0,0 14.74964,45.68472 4.51203,69.80414"
       inkscape:connector-curvature="0" />
    <path
       id="path166"
       style="fill:#2b478b;fill-opacity:1;fill-rule:nonzero;stroke:none;stroke-width:0.03527778"
       d="m -172.6171,252.66135 c -2.40595,18.01284 -5.78909,76.15062 -22.34142,103.89307 -5.33753,8.94291 13.44436,13.95589 13.54667,13.93119 2.51883,-0.65969 6.71689,-4.6743 8.65011,-6.42055 13.4373,-12.11087 40.72114,-46.4044 40.72114,-73.8999 0,-13.40908 -15.73389,-37.93772 -25.48467,-44.44294 -6.00428,-4.00756 -14.13933,-0.21873 -15.09183,6.93913"
       inkscape:connector-curvature="0" />
    <path
       id="path168"
       style="fill:#ebf3fa;fill-opacity:1;fill-rule:nonzero;stroke:none;stroke-width:0.03527778"
       d="m -222.03069,205.41382 c 0,0 -2.04258,-5.19289 -5.76086,-4.85775 -3.72181,0.33867 -37.51439,4.85775 -37.51439,4.85775 0,0 3.93347,0.94192 5.41866,3.52073 l 15.58573,45.93519 h 39.98383 l -17.71297,-49.45592"
       inkscape:connector-curvature="0" />
    <path
       id="path170"
       style="fill:#ffbf94;fill-opacity:1;fill-rule:nonzero;stroke:none;stroke-width:0.03527778"
       d="m -90.684459,215.85605 c 0,0 -56.638471,20.85975 -65.151001,20.43289 -5.49981,-0.2787 -51.22334,-16.35125 -51.22334,-16.35125 l -4.10633,7.76463 c 0,0 44.50292,28.60676 56.73725,28.46212 24.15822,-0.2787 64.914643,-15.10595 69.514866,-18.01989 4.596695,-2.91395 7.598834,-19.33928 -5.771445,-22.2885"
       inkscape:connector-curvature="0" />
    <path
       id="path172"
       style="fill:#ffbf94;fill-opacity:1;fill-rule:nonzero;stroke:none;stroke-width:0.03527778"
       d="m -207.0588,219.93769 c 0,0 -4.10633,-6.31473 -8.1915,-6.5017 -4.08869,-0.18697 -11.14778,2.78695 -13.56431,3.25261 -2.413,0.46214 -9.28864,2.6917 -7.24252,6.03603 2.04258,3.34433 11.51819,4.08869 15.60336,3.34433 4.08869,-0.74436 9.28864,1.63336 9.28864,1.63336 l 4.10633,-7.76463"
       inkscape:connector-curvature="0" />
    <path
       id="path174"
       style="fill:#ffbf94;fill-opacity:1;fill-rule:nonzero;stroke:none;stroke-width:0.03527778"
       d="m -214.13905,213.63002 c 0,0 -6.49817,-2.98097 -8.35731,-3.53836 -1.85914,-0.55739 -1.48519,0.0106 -0.9278,1.77094 0.55739,1.76036 3.90172,3.43959 3.90172,3.99345 0,0.55386 5.38339,-2.22603 5.38339,-2.22603"
       inkscape:connector-curvature="0" />
    <path
       id="path176"
       style="fill:#ffffff;fill-opacity:1;fill-rule:nonzero;stroke:none;stroke-width:0.03527778"
       d="m -140.10157,191.03107 c 0,0 2.43416,-0.96308 9.28511,-0.40922 0,0 -0.36336,2.67406 -5.41867,2.93864 -2.86103,0.14817 -3.86644,-2.52942 -3.86644,-2.52942"
       inkscape:connector-curvature="0" />
    <path
       id="path178"
       style="fill:#739af0;fill-opacity:1;fill-rule:nonzero;stroke:none;stroke-width:0.03527778"
       d="m -119.86624,226.14305 c 0,0 5.06589,16.03728 22.464892,19.685 0,0 28.730224,-8.8512 14.425084,-28.42331 0,0 -14.142862,-10.50925 -36.889976,8.73831"
       inkscape:connector-curvature="0" />
    <path
       id="path180"
       style="fill:#ffffff;fill-opacity:1;fill-rule:nonzero;stroke:none;stroke-width:0.03527778"
       d="m -265.30594,205.41382 c 0,0 -3.75356,1.43581 -0.9137,6.30767 l 36.53367,-4.87186 c 0,0 -1.27,-5.64797 1.59809,-6.26181 l -37.21806,4.826"
       inkscape:connector-curvature="0" />
    <path
       id="path182"
       style="fill:#ffad76;fill-opacity:1;fill-rule:nonzero;stroke:none;stroke-width:0.03527778"
       d="m -252.21436,217.40474 c 0.86431,-3.47486 0.81139,-4.31447 -1.15005,-6.43467 -1.29823,-1.40052 -3.28437,2.07434 -4.31095,4.16984 -0.37747,-0.92428 -1.01953,-2.43064 -1.23825,-2.50472 -0.31397,-0.10937 0.43745,4.66725 0.43745,4.66725 v -0.004 c -0.0176,0.19755 -0.0247,0.39864 -0.0212,0.59972 l -0.004,-0.004 c 0,0 -1.58397,7.02028 5.32342,10.81264 l -1.31939,-3.86997 c 0.80081,-0.13053 1.40053,-3.90878 2.28247,-7.43303"
       inkscape:connector-curvature="0" />
    <path
       id="path184"
       style="fill:#233862;fill-opacity:1;fill-rule:nonzero;stroke:none;stroke-width:0.03527778"
       d="m -136.25982,159.57035 c 0,0 5.42925,-1.905 8.06097,3.64419 2.62819,5.54567 3.46428,18.80659 14.00528,19.88962 10.541,1.08302 10.94669,-22.46137 10.94669,-22.46137 l -26.38425,-10.41753 -13.93119,8.79476 7.3025,0.55033"
       inkscape:connector-curvature="0" />
    <path
       id="path186"
       style="fill:#233862;fill-opacity:1;fill-rule:nonzero;stroke:none;stroke-width:0.03527778"
       d="m -136.25982,159.57035 c 0,0 -5.94431,0.127 -7.3025,5.13292 -1.3582,5.00591 0.762,14.34041 -2.52942,15.01775 -3.29142,0.67733 -6.28297,-15.56103 0.0847,-20.83506 6.36411,-5.27756 9.74725,0.68439 9.74725,0.68439"
       inkscape:connector-curvature="0" />
    <path
       id="path188"
       style="fill:#ffb27d;fill-opacity:1;fill-rule:nonzero;stroke:none;stroke-width:0.03527778"
       d="m -602.90019,72.649426 c 0,0 5.95137,-2.25425 6.6287,-3.81 0.67733,-1.55575 2.63878,-2.233083 5.00592,-3.316111 2.36714,-1.083028 3.78883,-3.044473 4.1275,-2.772834 0.33866,0.268111 0.40569,1.622778 -0.54328,2.638778 -0.94545,1.012472 -4.95653,8.117417 -6.46995,8.928806 -1.51341,0.811389 -8.74889,-1.668639 -8.74889,-1.668639"
       inkscape:connector-curvature="0" />
    <path
       id="path190"
       style="fill:#82b378;fill-opacity:1;fill-rule:nonzero;stroke:none;stroke-width:0.03527778"
       d="m 14.570325,384.48383 h -38.251696 c -2.049639,-1.73919 1.421694,-5.6903 5.044722,-5.95488 1.573389,-0.11995 3.563056,0.21166 5.838473,0.69144 0.525639,-6.99206 3.5313054,-38.42103 14.8590006,-37.15809 12.7388064,1.41464 0,13.84301 -3.5983336,21.19842 -2.6705279,5.45042 -5.482167,13.26445 -6.7698059,16.95098 1.0336389,0.22577 2.1060834,0.4445 3.1996946,0.64558 1.6898057,-5.18231 7.9692505,-22.62011 15.9596673,-21.60411 9.380362,1.18886 5.609167,8.18091 -1.0406941,12.32958 -4.8753892,3.05153 -10.8655563,7.3907 -13.7124731,9.4862 2.4130001,0.39158 4.9283059,0.65969 7.4824171,0.59972 6.5510841,-0.15522 9.7507781,1.77447 10.9890281,2.81516"
       inkscape:connector-curvature="0" />
    <path
       id="path192"
       style="fill:#82b378;fill-opacity:1;fill-rule:nonzero;stroke:none;stroke-width:0.03527778"
       d="m -842.67197,385.25995 c 0,0 -14.53938,-39.93092 -24.74771,-36.52662 -10.20869,3.40431 24.74771,36.52662 24.74771,36.52662"
       inkscape:connector-curvature="0" />
    <path
       id="path194"
       style="fill:#82b378;fill-opacity:1;fill-rule:nonzero;stroke:none;stroke-width:0.03527778"
       d="m -848.24021,385.25995 c -1.23755,0 -24.43868,-24.07709 -25.98526,-17.77295 -1.54693,6.30414 25.98526,17.77295 25.98526,17.77295"
       inkscape:connector-curvature="0" />
    <path
       id="path196"
       style="fill:#82b378;fill-opacity:1;fill-rule:nonzero;stroke:none;stroke-width:0.03527778"
       d="m -823.4925,385.25995 c 0,0 -9.5952,-8.79828 -21.74381,-6.50875 -12.14861,2.29305 -17.33726,4.8013 -24.96785,3.06563 -7.63058,-1.73566 -11.52878,3.44312 -11.52878,3.44312 h 58.24044"
       inkscape:connector-curvature="0" />
    <path
       id="path198"
       style="fill:#2e3552;fill-opacity:1;fill-rule:nonzero;stroke:none;stroke-width:0.03527778"
       d="M 70.683162,387.52478 H -947.5073 c -0.63606,0 -1.15605,-0.51858 -1.15605,-1.15358 v -0.39512 c 0,-0.635 0.51999,-1.15711 1.15605,-1.15711 H 70.683162 c 0.635,0 1.157111,0.52211 1.157111,1.15711 v 0.39512 c 0,0.635 -0.522111,1.15358 -1.157111,1.15358"
       inkscape:connector-curvature="0" />
    <path
       id="path200"
       style="fill:#fcecdb;fill-opacity:1;fill-rule:nonzero;stroke:none;stroke-width:0.03527778"
       d="m -527.44807,369.31792 h -75.57559 c -4.22275,0 -7.64469,-3.42195 -7.64469,-7.6447 v -20.60928 c 0,-4.21922 3.42194,-7.64116 7.64469,-7.64116 h 75.57559 c 4.22275,0 7.64117,3.42194 7.64117,7.64116 v 20.60928 c 0,4.22275 -3.41842,7.6447 -7.64117,7.6447"
       inkscape:connector-curvature="0" />
    <path
       id="path202"
       style="fill:#efcbab;fill-opacity:1;fill-rule:nonzero;stroke:none;stroke-width:0.03527778"
       d="m -542.82213,342.34453 h -56.92775 c -0.63853,0 -1.15711,-0.51859 -1.15711,-1.15359 0,-0.635 0.51858,-1.15711 1.15711,-1.15711 h 56.92775 c 0.635,0 1.15711,0.52211 1.15711,1.15711 0,0.635 -0.52211,1.15359 -1.15711,1.15359"
       inkscape:connector-curvature="0" />
    <path
       id="path204"
       style="fill:#efcbab;fill-opacity:1;fill-rule:nonzero;stroke:none;stroke-width:0.03527778"
       d="m -589.65338,347.3328 h -10.0965 c -0.63853,0 -1.15711,-0.52211 -1.15711,-1.15711 0,-0.635 0.51858,-1.15711 1.15711,-1.15711 h 10.0965 c 0.635,0 1.15358,0.52211 1.15358,1.15711 0,0.635 -0.51858,1.15711 -1.15358,1.15711"
       inkscape:connector-curvature="0" />
    <path
       id="path206"
       style="fill:#efcbab;fill-opacity:1;fill-rule:nonzero;stroke:none;stroke-width:0.03527778"
       d="m -557.84693,347.3328 h -27.81653 c -0.635,0 -1.15711,-0.52211 -1.15711,-1.15711 0,-0.635 0.52211,-1.15711 1.15711,-1.15711 h 27.81653 c 0.635,0 1.15358,0.52211 1.15358,1.15711 0,0.635 -0.51858,1.15711 -1.15358,1.15711"
       inkscape:connector-curvature="0" />
    <path
       id="path208"
       style="fill:#efcbab;fill-opacity:1;fill-rule:nonzero;stroke:none;stroke-width:0.03527778"
       d="m -542.82213,356.565 h -56.92775 c -0.63853,0 -1.15711,-0.52211 -1.15711,-1.15711 0,-0.635 0.51858,-1.15711 1.15711,-1.15711 h 56.92775 c 0.635,0 1.15711,0.52211 1.15711,1.15711 0,0.635 -0.52211,1.15711 -1.15711,1.15711"
       inkscape:connector-curvature="0" />
    <path
       id="path210"
       style="fill:#efcbab;fill-opacity:1;fill-rule:nonzero;stroke:none;stroke-width:0.03527778"
       d="m -579.08768,361.54975 h -20.6622 c -0.63853,0 -1.15711,-0.52211 -1.15711,-1.15711 0,-0.635 0.51858,-1.15711 1.15711,-1.15711 h 20.6622 c 0.635,0 1.15358,0.52211 1.15358,1.15711 0,0.635 -0.51858,1.15711 -1.15358,1.15711"
       inkscape:connector-curvature="0" />
    <path
       id="path212"
       style="fill:#efcbab;fill-opacity:1;fill-rule:nonzero;stroke:none;stroke-width:0.03527778"
       d="m -553.94874,361.54975 h -20.66219 c -0.635,0 -1.15359,-0.52211 -1.15359,-1.15711 0,-0.635 0.51859,-1.15711 1.15359,-1.15711 h 20.66219 c 0.63853,0 1.15711,0.52211 1.15711,1.15711 0,0.635 -0.51858,1.15711 -1.15711,1.15711"
       inkscape:connector-curvature="0" />
  </g>
</svg>
